# Blender v2.81 (sub 16) OBJ File: 'Cacti.blend'
# www.blender.org
mtllib DesertCactus1.mtl
o Cylinder.005_Cylinder.007
v 1.562749 1.811145 -0.757984
v 2.429795 2.646253 -2.368755
v 1.416413 2.341529 -0.543594
v 2.250361 3.296598 -2.105876
v 0.993656 2.649830 -0.567427
v 1.731986 3.674628 -2.135099
v 0.542123 2.555447 -0.815521
v 1.178327 3.558899 -2.439306
v 0.326316 2.113670 -1.142547
v 0.913710 3.017202 -2.840297
v 0.472652 1.583286 -1.356936
v 1.093144 2.366857 -3.103176
v 0.895410 1.274985 -1.333103
v 1.611519 1.988827 -3.073952
v 1.346943 1.369368 -1.085009
v 2.165178 2.104556 -2.769745
v 1.771086 2.950472 -2.830488
v 1.458346 1.626984 -2.866127
v 0.819780 2.092664 -2.902127
v 0.598743 2.893798 -2.578297
v 0.924714 3.561092 -2.084333
v 1.606744 3.703654 -1.709593
v 2.245310 3.237974 -1.673594
v 2.466347 2.436840 -1.997424
v 2.140376 1.769546 -2.491387
v 1.903916 2.829871 -0.897000
v 1.265351 3.295551 -0.932999
v 0.583320 3.152989 -1.307739
v 0.257349 2.485695 -1.801703
v 0.478387 1.684561 -2.125533
v 1.116952 1.218881 -2.089534
v 1.798982 1.361443 -1.714794
v 2.124953 2.028737 -1.220830
v -0.000000 -0.000000 -0.818535
v -0.000000 4.327764 -1.107630
v 0.409267 -0.000000 -0.708872
v 0.553815 4.327764 -0.959236
v 0.708872 -0.000000 -0.409267
v 0.959235 4.327764 -0.553815
v 0.818535 -0.000000 0.000000
v 1.107630 4.327764 0.000000
v 0.708872 -0.000000 0.409268
v 0.959235 4.327764 0.553815
v 0.409267 -0.000000 0.708872
v 0.553815 4.327764 0.959236
v -0.000000 -0.000000 0.818535
v -0.000000 4.327764 1.107630
v -0.409268 -0.000000 0.708872
v -0.553815 4.327764 0.959236
v -0.708872 -0.000000 0.409268
v -0.959236 4.327765 0.553815
v -0.818535 -0.000000 0.000001
v -1.107631 4.327764 0.000000
v -0.708873 -0.000000 -0.409267
v -0.959237 4.327764 -0.553815
v -0.409268 -0.000000 -0.708872
v -0.553816 4.327764 -0.959235
v 0.339547 4.744469 -0.588114
v -0.000000 4.744469 -0.679095
v 0.588113 4.744469 -0.339547
v 0.679095 4.744469 0.000000
v 0.588113 4.744469 0.339548
v 0.339547 4.744469 0.588114
v -0.000000 4.744469 0.679095
v -0.339548 4.744469 0.588114
v -0.588114 4.744469 0.339548
v -0.679096 4.744469 0.000000
v -0.588115 4.744469 -0.339547
v -0.339549 4.744469 -0.588113
v -0.000001 4.992831 0.000000
v -1.407531 3.509370 -0.812637
v -1.347307 1.386714 -0.777866
v -1.625277 3.509370 0.000001
v -1.555735 1.386714 0.000001
v -1.407531 3.509371 0.812639
v -1.347306 1.386714 0.777868
v -0.812638 3.509370 1.407531
v -0.777867 1.386714 1.347306
v -0.000000 3.509370 1.625276
v -0.000000 1.386714 1.555734
v 0.812638 3.509371 1.407530
v 0.777867 1.386714 1.347305
v 1.407530 3.509370 0.812638
v 1.347305 1.386714 0.777867
v 1.625276 3.509370 -0.000000
v 1.555734 1.386714 0.000000
v 1.407530 3.509370 -0.812638
v 1.347305 1.386714 -0.777867
v 0.812638 3.509370 -1.407531
v 0.777867 1.386714 -1.347305
v -0.000001 1.386714 -1.555734
v -0.000001 3.509370 -1.625276
v -0.812640 3.509370 -1.407530
v -0.777869 1.386714 -1.347305
v -0.000001 2.448042 -1.859436
v 0.929718 2.448042 -1.610319
v 1.610319 2.448042 -0.929718
v 1.859436 2.448042 0.000000
v 1.610318 2.448042 0.929718
v 0.929718 2.448042 1.610319
v -0.000000 2.448042 1.859436
v -0.929718 2.448042 1.610319
v -1.610319 2.448042 0.929719
v -1.859437 2.448042 0.000001
v -1.610320 2.448042 -0.929717
v -0.929720 2.448042 -1.610318
v -1.443573 3.057281 0.445170
v -2.585179 3.836369 0.902886
v -1.208060 3.355410 0.488983
v -2.296397 4.201927 0.956608
v -0.977071 3.478899 0.767661
v -2.013164 4.353347 1.298317
v -0.885917 3.355410 1.117959
v -1.901393 4.201928 1.727844
v -0.987995 3.057281 1.334677
v -2.026559 3.836368 1.993578
v -1.223508 2.759152 1.290863
v -2.315340 3.470810 1.939855
v -1.454497 2.635663 1.012185
v -2.598573 3.319391 1.598146
v -1.545651 2.759152 0.661887
v -2.710344 3.470810 1.168619
v -2.454768 3.942788 1.524494
v -2.457771 3.050388 1.526032
v -2.108868 3.236915 1.946969
v -1.753130 3.687232 2.013148
v -1.598943 4.137549 1.685801
v -1.736629 4.324077 1.156685
v -2.085532 4.137549 0.735747
v -2.441271 3.687232 0.669569
v -2.595457 3.236916 0.996915
v -1.573792 3.771806 0.473649
v -1.224889 3.958333 0.894586
v -1.087203 3.771806 1.423703
v -1.241389 3.321489 1.751049
v -1.597127 2.871172 1.684870
v -1.946030 2.684645 1.263933
v -2.083716 2.871172 0.734817
v -1.929530 3.321489 0.407470
v -1.770174 3.790884 0.600294
v -1.923159 4.331326 0.053038
v -1.581334 3.867046 0.631486
v -1.691607 4.424714 0.091285
v -1.498719 4.002272 0.763104
v -1.590306 4.590524 0.252671
v -1.570724 4.117348 0.918046
v -1.678596 4.731628 0.442658
v -1.755169 4.144865 1.005550
v -1.904760 4.765368 0.549953
v -1.944010 4.068703 0.974357
v -2.136312 4.671981 0.511706
v -2.026625 3.933477 0.842740
v -2.237612 4.506170 0.350320
v -1.954620 3.818401 0.687798
v -2.149322 4.365066 0.160333
v -1.934624 4.627636 0.233003
v -2.283694 4.385274 0.457625
v -2.158906 4.589530 0.656430
v -1.873667 4.704571 0.703545
v -1.595066 4.663007 0.571372
v -1.486304 4.489187 0.337336
v -1.611092 4.284932 0.138531
v -1.896332 4.169891 0.091416
v -2.174932 4.211454 0.223589
v -1.540070 4.012428 0.373926
v -1.415282 4.216684 0.572731
v -1.524044 4.390504 0.806767
v -1.802645 4.432067 0.938940
v -2.087884 4.317027 0.891825
v -2.212673 4.112771 0.693020
v -2.103911 3.938951 0.458984
v -1.825310 3.897388 0.326811
vt 0.494700 0.537082
vt 0.511644 0.543298
vt 0.504270 0.569315
vt 0.488981 0.569667
vt 0.505699 0.590629
vt 0.491977 0.594951
vt 0.516765 0.608921
vt 0.503931 0.617449
vt 0.538058 0.626099
vt 0.527659 0.641291
vt 0.569600 0.640945
vt 0.563711 0.664002
vt 0.616339 0.643393
vt 0.615438 0.680916
vt 0.564723 0.571882
vt 0.541057 0.453162
vt 0.564633 0.483193
vt 0.528182 0.513400
vt 0.509993 0.498779
vt 0.531399 0.780144
vt 0.561385 0.776514
vt 0.582589 0.798026
vt 0.582589 0.832079
vt 0.459311 0.602826
vt 0.471192 0.635181
vt 0.494729 0.671284
vt 0.530312 0.707188
vt 0.575108 0.750004
vt 0.472131 0.428423
vt 0.462405 0.481519
vt 0.453352 0.528465
vt 0.452699 0.569784
vt 0.405307 0.525288
vt 0.400298 0.572185
vt 0.402972 0.618810
vt 0.407766 0.479881
vt 0.407861 0.437614
vt 0.481547 0.742240
vt 0.508161 0.782089
vt 0.453256 0.701011
vt 0.423903 0.661136
vt 0.561385 0.858725
vt 0.510196 0.806790
vt 0.531399 0.862355
vt 0.510196 0.840843
vt 0.130113 0.177864
vt 0.089527 0.216182
vt 0.054442 0.195876
vt 0.095014 0.135399
vt 0.388256 0.103189
vt 0.242043 0.078041
vt 0.244831 0.004072
vt 0.399895 0.061795
vt 0.399895 0.535901
vt 0.257753 0.610747
vt 0.251134 0.531387
vt 0.384511 0.495383
vt 0.252052 0.472507
vt 0.377692 0.455440
vt 0.254791 0.424510
vt 0.375523 0.416519
vt 0.257378 0.382505
vt 0.375632 0.378179
vt 0.259011 0.343659
vt 0.376596 0.340002
vt 0.259322 0.306086
vt 0.377614 0.301698
vt 0.258124 0.268283
vt 0.378360 0.263085
vt 0.255359 0.228783
vt 0.378936 0.224046
vt 0.135355 0.285468
vt 0.138263 0.308811
vt 0.111502 0.309074
vt 0.108815 0.292304
vt 0.251154 0.185810
vt 0.379929 0.184459
vt 0.382448 0.144193
vt 0.246093 0.136849
vt 0.794605 0.064550
vt 0.800723 0.061018
vt 0.807786 0.061018
vt 0.813904 0.064550
vt 0.103083 0.342320
vt 0.091280 0.357452
vt 0.055706 0.310921
vt 0.136170 0.332171
vt 0.109647 0.325931
vt 0.128807 0.355583
vt 0.115221 0.378950
vt 0.093450 0.401792
vt 0.073338 0.369930
vt 0.069944 0.249856
vt 0.043764 0.243844
vt 0.002199 0.183764
vt 0.009034 0.249012
vt 0.059706 0.422626
vt 0.048108 0.377017
vt 0.112524 0.238846
vt 0.088756 0.261557
vt 0.005739 0.437213
vt 0.015194 0.373067
vt 0.127118 0.262112
vt 0.101411 0.276190
vt 0.101677 0.481047
vt 0.134295 0.439007
vt 0.154530 0.402505
vt 0.166832 0.369475
vt 0.173391 0.338434
vt 0.175204 0.308297
vt 0.172537 0.278166
vt 0.165056 0.247162
vt 0.151693 0.214234
vt 0.048424 0.530263
vt 0.031180 0.080845
vt 0.791073 0.070668
vt 0.817436 0.070668
vt 0.791073 0.077732
vt 0.817436 0.077732
vt 0.813904 0.083849
vt 0.794605 0.083849
vt 0.807786 0.087381
vt 0.800723 0.087381
vt 0.161260 0.092521
vt 0.130442 0.009531
vt 0.135293 0.600893
vt 0.167207 0.519455
vt 0.187162 0.462425
vt 0.200041 0.416983
vt 0.208145 0.377680
vt 0.212520 0.341594
vt 0.213611 0.306862
vt 0.211504 0.272042
vt 0.205989 0.235713
vt 0.196536 0.196070
vt 0.182176 0.150228
vt 0.920545 0.721926
vt 0.912966 0.715153
vt 0.920819 0.703390
vt 0.929064 0.707246
vt 0.924277 0.690583
vt 0.933183 0.691813
vt 0.923377 0.676937
vt 0.932864 0.675281
vt 0.917251 0.662807
vt 0.927154 0.657448
vt 0.903639 0.648995
vt 0.913488 0.637946
vt 0.876337 0.638212
vt 0.883962 0.615354
vt 0.888418 0.687329
vt 0.879801 0.754406
vt 0.872638 0.734002
vt 0.899234 0.725690
vt 0.906215 0.736726
vt 0.013767 0.022533
vt 0.027196 0.009104
vt 0.046187 0.009104
vt 0.059616 0.022533
vt 0.954639 0.695899
vt 0.956400 0.674064
vt 0.953351 0.649719
vt 0.944469 0.621039
vt 0.928138 0.580011
vt 0.912578 0.780895
vt 0.927447 0.754973
vt 0.939639 0.734944
vt 0.948841 0.715911
vt 0.965069 0.747317
vt 0.976655 0.725938
vt 0.985822 0.701589
vt 0.953213 0.767212
vt 0.944497 0.788021
vt 0.986519 0.611219
vt 0.981021 0.576300
vt 0.990933 0.643679
vt 0.990887 0.673998
vt 0.059616 0.041524
vt 0.013767 0.041524
vt 0.046187 0.054953
vt 0.027196 0.054953
vt 0.776257 0.925447
vt 0.787567 0.922662
vt 0.790648 0.937351
vt 0.784370 0.940522
vt 0.795586 0.945258
vt 0.791564 0.948971
vt 0.801487 0.950077
vt 0.798993 0.954298
vt 0.808174 0.952593
vt 0.807054 0.957304
vt 0.815537 0.952816
vt 0.815934 0.957989
vt 0.823429 0.950263
vt 0.825790 0.955850
vt 0.811774 0.933536
vt 0.831539 0.943680
vt 0.836953 0.949532
vt 0.838732 0.929600
vt 0.850593 0.934871
vt 0.852634 0.195484
vt 0.859867 0.188251
vt 0.870096 0.188251
vt 0.877329 0.195484
vt 0.783596 0.958535
vt 0.793324 0.964453
vt 0.803753 0.968596
vt 0.815369 0.970670
vt 0.828579 0.970294
vt 0.844415 0.967017
vt 0.867256 0.960383
vt 0.773489 0.950962
vt 0.760360 0.941649
vt 0.754888 0.958394
vt 0.765594 0.964143
vt 0.775647 0.971528
vt 0.847504 0.990069
vt 0.866510 0.988927
vt 0.829873 0.990756
vt 0.813620 0.989163
vt 0.799090 0.985020
vt 0.786510 0.978846
vt 0.877329 0.205714
vt 0.852634 0.205714
vt 0.870096 0.212947
vt 0.859867 0.212947
vn 0.9864 -0.1280 0.1033
vn 0.9098 0.1503 -0.3867
vn 0.7740 0.5892 -0.2320
vn 0.7974 0.5019 0.3349
vn 0.3106 0.9066 -0.2854
vn 0.1490 0.9514 0.2693
vn -0.1903 0.8251 -0.5319
vn -0.5492 0.8314 -0.0840
vn -0.3919 0.4688 -0.7916
vn -0.8290 0.3161 -0.4613
vn -0.2463 0.0415 -0.9683
vn -0.6302 -0.3020 -0.7152
vn 0.2269 -0.2640 -0.9374
vn 0.0282 -0.7396 -0.6725
vn 0.3627 0.4335 -0.8249
vn 0.7180 -0.1944 -0.6683
vn 0.7164 -0.6316 -0.2964
vn -0.7363 -0.5814 0.3460
vn -0.3299 -0.8636 0.3812
vn 0.1048 -0.7872 0.6076
vn 0.2654 -0.4835 0.8341
vn -0.0291 0.7379 0.6742
vn -0.7169 0.6301 0.2983
vn -0.9867 0.1269 -0.1012
vn -0.7979 -0.5028 -0.3325
vn -0.1499 -0.9520 -0.2669
vn 0.5479 -0.8321 0.0860
vn 0.8277 -0.3170 0.4631
vn 0.6289 0.3008 0.7169
vn 0.1528 -0.1161 0.9814
vn -0.2565 0.1626 0.9527
vn -0.8467 -0.2114 0.4883
vn -0.6884 0.0897 0.7198
vn -0.4643 0.3710 -0.8042
vn -0.3920 0.6207 -0.6789
vn 0.0000 0.6207 -0.7840
vn 0.0000 0.3710 -0.9286
vn 0.0000 -0.8198 -0.5726
vn 0.0000 -0.3684 -0.9296
vn 0.4648 -0.3684 -0.8051
vn 0.2863 -0.8198 -0.4959
vn 0.8051 -0.3684 -0.4648
vn 0.4959 -0.8198 -0.2863
vn 0.9296 -0.3684 0.0000
vn 0.5726 -0.8198 0.0000
vn 0.8051 -0.3684 0.4648
vn 0.4959 -0.8198 0.2863
vn 0.4648 -0.3684 0.8051
vn 0.2863 -0.8198 0.4959
vn 0.0000 -0.3684 0.9296
vn 0.0000 -0.8198 0.5726
vn -0.4648 -0.3684 0.8051
vn -0.2863 -0.8198 0.4959
vn -0.8051 -0.3684 0.4648
vn -0.4959 -0.8198 0.2863
vn -0.9296 -0.3684 0.0000
vn -0.5726 -0.8198 0.0000
vn -0.6789 0.6207 0.3920
vn -0.3920 0.6207 0.6789
vn -0.2780 0.8312 0.4815
vn -0.4815 0.8312 0.2780
vn -0.8051 -0.3684 -0.4648
vn -0.4959 -0.8198 -0.2863
vn -0.2863 -0.8198 -0.4959
vn -0.4648 -0.3684 -0.8051
vn 0.2780 0.8311 0.4815
vn 0.4815 0.8311 0.2780
vn 0.0000 1.0000 0.0000
vn 0.0000 0.6207 0.7840
vn 0.0000 0.8311 0.5560
vn 0.3920 0.6207 0.6789
vn 0.6789 0.6207 0.3920
vn 0.7840 0.6207 0.0000
vn 0.5560 0.8312 0.0000
vn -0.2780 0.8311 -0.4815
vn 0.0000 0.8311 -0.5560
vn 0.3920 0.6207 -0.6789
vn 0.2780 0.8311 -0.4815
vn 0.6789 0.6207 -0.3920
vn 0.4815 0.8311 -0.2780
vn -0.6789 0.6207 -0.3920
vn -0.4815 0.8312 -0.2780
vn -0.7840 0.6207 0.0000
vn -0.5560 0.8311 0.0000
vn 0.8042 0.3710 -0.4643
vn 0.9286 0.3710 0.0000
vn 0.8042 0.3710 0.4643
vn 0.4643 0.3710 0.8042
vn 0.0000 0.3710 0.9286
vn -0.4643 0.3710 0.8042
vn -0.8042 0.3710 0.4643
vn -0.9286 0.3710 0.0000
vn -0.8042 0.3710 -0.4643
vn 0.4643 0.3710 -0.8042
vn 0.0000 -0.0296 -0.9995
vn 0.4998 -0.0296 -0.8656
vn 0.8656 -0.0296 -0.4998
vn 0.9995 -0.0296 0.0000
vn 0.8656 -0.0296 0.4998
vn 0.4998 -0.0296 0.8656
vn 0.0000 -0.0296 0.9995
vn -0.4998 -0.0296 0.8656
vn -0.8656 -0.0296 0.4998
vn -0.9995 -0.0296 0.0000
vn -0.8656 -0.0296 -0.4998
vn -0.4998 -0.0296 -0.8656
vn -0.6112 0.1192 -0.7824
vn -0.8562 0.3848 -0.3446
vn -0.5277 0.8007 -0.2835
vn -0.1517 0.7009 -0.6969
vn -0.2054 0.9730 0.1052
vn 0.2990 0.9419 -0.1531
vn -0.0782 0.8007 0.5939
vn 0.4769 0.7009 0.5304
vn -0.2206 0.3848 0.8962
vn 0.2777 0.1192 0.9532
vn -0.5492 -0.0311 0.8351
vn -0.1818 -0.4625 0.8677
vn -0.8715 -0.2033 0.4463
vn -0.6326 -0.7035 0.3240
vn -0.7510 0.5367 0.3846
vn -0.9986 -0.0311 -0.0423
vn -0.8104 -0.4625 -0.3595
vn 0.5904 -0.7877 0.1757
vn 0.3123 -0.9364 -0.1599
vn 0.2025 -0.7877 -0.5818
vn 0.3254 -0.4286 -0.8428
vn 0.6341 0.7017 -0.3247
vn 0.8119 0.4609 0.3583
vn 0.6128 -0.1205 0.7810
vn 0.1535 -0.7019 0.6955
vn -0.2969 -0.9427 0.1521
vn -0.4747 -0.7019 -0.5310
vn -0.2756 -0.1205 -0.9537
vn 0.1836 0.4609 -0.8682
vn 0.6091 -0.0696 -0.7900
vn 0.8872 0.0791 -0.4544
vn 0.8741 -0.4286 0.2284
vn 0.9970 -0.0696 -0.0325
vn -0.0701 -0.4763 -0.8765
vn -0.1581 0.0739 -0.9846
vn 0.3309 0.2712 -0.9038
vn 0.6139 -0.2004 -0.7635
vn 0.5449 0.6214 -0.5629
vn 0.9132 0.2895 -0.2867
vn 0.3584 0.9194 -0.1617
vn 0.6524 0.7064 0.2746
vn -0.1193 0.9907 0.0649
vn -0.0158 0.8061 0.5916
vn -0.6084 0.7935 -0.0158
vn -0.6999 0.5301 0.4786
vn -0.8224 0.4432 -0.3567
vn -0.9992 0.0403 0.0018
vn -0.1935 0.7424 -0.6413
vn -0.6359 0.1452 -0.7580
vn -0.7383 -0.3766 -0.5595
vn -0.2509 -0.3675 0.8955
vn -0.4357 -0.6699 0.6012
vn -0.2746 -0.9272 0.2548
vn 0.1378 -0.9887 0.0591
vn 0.9991 -0.0421 -0.0002
vn 0.7384 0.3745 0.5608
vn 0.0706 0.4741 0.8776
vn -0.6131 0.1984 0.7647
vn -0.9122 -0.2912 0.2881
vn -0.6515 -0.7078 -0.2728
vn 0.0163 -0.8075 -0.5896
vn 0.7000 -0.5317 -0.4767
vn 0.5600 -0.8184 0.1289
vn 0.7447 -0.5160 0.4232
vn 0.1713 -0.1972 0.9653
vn 0.5837 -0.2587 0.7696
usemtl Material.002
s 1
f 24/1/1 2/2/2 4/3/3 23/4/4
f 23/4/4 4/3/3 6/5/5 22/6/6
f 22/6/6 6/5/5 8/7/7 21/8/8
f 21/8/8 8/7/7 10/9/9 20/10/10
f 20/10/10 10/9/9 12/11/11 19/12/12
f 19/12/12 12/11/11 14/13/13 18/14/14
f 10/9/9 8/7/7 17/15/15
f 18/16/14 14/17/13 16/18/16 25/19/17
f 25/19/17 16/18/16 2/2/2 24/1/1
f 11/20/18 13/21/19 15/22/20 1/23/21
f 27/24/22 22/6/6 21/8/8 28/25/23
f 16/18/16 14/17/13 17/15/15
f 6/5/5 4/3/3 17/15/15
f 12/11/11 10/9/9 17/15/15
f 2/2/2 16/18/16 17/15/15
f 4/3/3 2/2/2 17/15/15
f 8/7/7 6/5/5 17/15/15
f 14/13/13 12/11/11 17/15/15
f 28/25/23 21/8/8 20/10/10 29/26/24
f 29/26/24 20/10/10 19/12/12 30/27/25
f 30/27/25 19/12/12 18/14/14 31/28/26
f 31/29/26 18/16/14 25/19/17 32/30/27
f 32/30/27 25/19/17 24/1/1 33/31/28
f 26/32/29 23/4/4 22/6/6 27/24/22
f 33/31/28 24/1/1 23/4/4 26/32/29
f 1/33/21 33/31/28 26/32/29 3/34/30
f 3/34/30 26/32/29 27/24/22 5/35/31
f 15/36/20 32/30/27 33/31/28 1/33/21
f 13/37/19 31/29/26 32/30/27 15/36/20
f 11/38/18 30/27/25 31/28/26 13/39/19
f 9/40/32 29/26/24 30/27/25 11/38/18
f 7/41/33 28/25/23 29/26/24 9/40/32
f 5/35/31 27/24/22 28/25/23 7/41/33
f 1/23/21 3/42/30 9/43/32 11/20/18
f 3/42/30 5/44/31 7/45/33 9/43/32
f 93/46/34 57/47/35 35/48/36 92/49/37
f 34/50/38 91/51/39 90/52/40 36/53/41
f 36/54/41 90/55/40 88/56/42 38/57/43
f 38/57/43 88/56/42 86/58/44 40/59/45
f 40/59/45 86/58/44 84/60/46 42/61/47
f 42/61/47 84/60/46 82/62/48 44/63/49
f 44/63/49 82/62/48 80/64/50 46/65/51
f 46/65/51 80/64/50 78/66/52 48/67/53
f 48/67/53 78/66/52 76/68/54 50/69/55
f 50/69/55 76/68/54 74/70/56 52/71/57
f 51/72/58 49/73/59 65/74/60 66/75/61
f 52/71/57 74/70/56 72/76/62 54/77/63
f 56/78/64 94/79/65 91/51/39 34/50/38
f 48/80/53 50/81/55 52/82/57 54/83/63
f 63/84/66 62/85/67 70/86/68
f 49/73/59 47/87/69 64/88/70 65/74/60
f 47/87/69 45/89/71 63/84/66 64/88/70
f 45/89/71 43/90/72 62/85/67 63/84/66
f 43/90/72 41/91/73 61/92/74 62/85/67
f 35/48/36 57/47/35 69/93/75 59/94/76
f 37/95/77 35/48/36 59/94/76 58/96/78
f 41/91/73 39/97/79 60/98/80 61/92/74
f 57/47/35 55/99/81 68/100/82 69/93/75
f 39/97/79 37/101/77 58/102/78 60/98/80
f 55/99/81 53/103/83 67/104/84 68/100/82
f 53/103/83 51/72/58 66/75/61 67/104/84
f 87/105/85 39/97/79 41/91/73 85/106/86
f 59/94/76 69/93/75 70/86/68
f 60/98/80 58/102/78 70/86/68
f 67/104/84 66/75/61 70/86/68
f 64/88/70 63/84/66 70/86/68
f 61/92/74 60/98/80 70/86/68
f 68/100/82 67/104/84 70/86/68
f 65/74/60 64/88/70 70/86/68
f 62/85/67 61/92/74 70/86/68
f 69/93/75 68/100/82 70/86/68
f 58/96/78 59/94/76 70/86/68
f 66/75/61 65/74/60 70/86/68
f 85/106/86 41/91/73 43/90/72 83/107/87
f 83/107/87 43/90/72 45/89/71 81/108/88
f 81/108/88 45/89/71 47/87/69 79/109/89
f 79/109/89 47/87/69 49/73/59 77/110/90
f 77/110/90 49/73/59 51/72/58 75/111/91
f 75/111/91 51/72/58 53/103/83 73/112/92
f 73/112/92 53/103/83 55/99/81 71/113/93
f 71/113/93 55/99/81 57/47/35 93/46/34
f 89/114/94 37/101/77 39/97/79 87/105/85
f 92/49/37 35/48/36 37/95/77 89/115/94
f 46/116/51 48/80/53 54/83/63 56/117/64
f 44/118/49 46/116/51 56/117/64 34/119/38
f 34/119/38 36/120/41 42/121/47 44/118/49
f 36/120/41 38/122/43 40/123/45 42/121/47
f 95/124/95 96/125/96 90/52/40 91/51/39
f 96/126/96 97/127/97 88/56/42 90/55/40
f 97/127/97 98/128/98 86/58/44 88/56/42
f 98/128/98 99/129/99 84/60/46 86/58/44
f 99/129/99 100/130/100 82/62/48 84/60/46
f 100/130/100 101/131/101 80/64/50 82/62/48
f 101/131/101 102/132/102 78/66/52 80/64/50
f 102/132/102 103/133/103 76/68/54 78/66/52
f 103/133/103 104/134/104 74/70/56 76/68/54
f 104/134/104 105/135/105 72/76/62 74/70/56
f 105/135/105 106/136/106 94/79/65 72/76/62
f 106/136/106 95/124/95 91/51/39 94/79/65
f 54/77/63 72/76/62 94/79/65 56/78/64
f 93/46/34 92/49/37 95/124/95 106/136/106
f 71/113/93 93/46/34 106/136/106 105/135/105
f 73/112/92 71/113/93 105/135/105 104/134/104
f 75/111/91 73/112/92 104/134/104 103/133/103
f 77/110/90 75/111/91 103/133/103 102/132/102
f 79/109/89 77/110/90 102/132/102 101/131/101
f 81/108/88 79/109/89 101/131/101 100/130/100
f 83/107/87 81/108/88 100/130/100 99/129/99
f 85/106/86 83/107/87 99/129/99 98/128/98
f 87/105/85 85/106/86 98/128/98 97/127/97
f 89/114/94 87/105/85 97/127/97 96/126/96
f 92/49/37 89/115/94 96/125/96 95/124/95
f 130/137/107 108/138/108 110/139/109 129/140/110
f 129/140/110 110/139/109 112/141/111 128/142/112
f 128/142/112 112/141/111 114/143/113 127/144/114
f 127/144/114 114/143/113 116/145/115 126/146/116
f 126/146/116 116/145/115 118/147/117 125/148/118
f 125/148/118 118/147/117 120/149/119 124/150/120
f 116/145/115 114/143/113 123/151/121
f 124/152/120 120/153/119 122/154/122 131/155/123
f 131/155/123 122/154/122 108/138/108 130/137/107
f 117/156/124 119/157/125 121/158/126 107/159/127
f 133/160/128 128/142/112 127/144/114 134/161/129
f 122/154/122 120/153/119 123/151/121
f 112/141/111 110/139/109 123/151/121
f 118/147/117 116/145/115 123/151/121
f 108/138/108 122/154/122 123/151/121
f 110/139/109 108/138/108 123/151/121
f 114/143/113 112/141/111 123/151/121
f 120/149/119 118/147/117 123/151/121
f 134/161/129 127/144/114 126/146/116 135/162/130
f 135/162/130 126/146/116 125/148/118 136/163/131
f 136/163/131 125/148/118 124/150/120 137/164/132
f 137/165/132 124/152/120 131/155/123 138/166/133
f 138/166/133 131/155/123 130/137/107 139/167/134
f 132/168/135 129/140/110 128/142/112 133/160/128
f 139/167/134 130/137/107 129/140/110 132/168/135
f 107/169/127 139/167/134 132/168/135 109/170/136
f 109/170/136 132/168/135 133/160/128 111/171/137
f 121/172/126 138/166/133 139/167/134 107/169/127
f 119/173/125 137/165/132 138/166/133 121/172/126
f 117/174/124 136/163/131 137/164/132 119/175/125
f 115/176/138 135/162/130 136/163/131 117/174/124
f 113/177/139 134/161/129 135/162/130 115/176/138
f 111/171/137 133/160/128 134/161/129 113/177/139
f 107/159/127 109/178/136 115/179/138 117/156/124
f 109/178/136 111/180/137 113/181/139 115/179/138
f 163/182/140 141/183/141 143/184/142 162/185/143
f 162/185/143 143/184/142 145/186/144 161/187/145
f 161/187/145 145/186/144 147/188/146 160/189/147
f 160/189/147 147/188/146 149/190/148 159/191/149
f 159/191/149 149/190/148 151/192/150 158/193/151
f 158/193/151 151/192/150 153/194/152 157/195/153
f 149/190/148 147/188/146 156/196/154
f 157/195/153 153/194/152 155/197/155 164/198/156
f 164/198/156 155/197/155 141/199/141 163/200/140
f 150/201/157 152/202/158 154/203/159 140/204/160
f 166/205/161 161/187/145 160/189/147 167/206/162
f 155/197/155 153/194/152 156/196/154
f 145/186/144 143/184/142 156/196/154
f 151/192/150 149/190/148 156/196/154
f 141/199/141 155/197/155 156/196/154
f 143/184/142 141/183/141 156/196/154
f 147/188/146 145/186/144 156/196/154
f 153/194/152 151/192/150 156/196/154
f 167/206/162 160/189/147 159/191/149 168/207/163
f 168/207/163 159/191/149 158/193/151 169/208/164
f 169/208/164 158/193/151 157/195/153 170/209/165
f 170/209/165 157/195/153 164/198/156 171/210/166
f 171/210/166 164/198/156 163/200/140 172/211/167
f 165/212/168 162/185/143 161/187/145 166/205/161
f 172/213/167 163/182/140 162/185/143 165/212/168
f 140/214/160 172/213/167 165/212/168 142/215/169
f 142/215/169 165/212/168 166/205/161 144/216/170
f 154/217/159 171/210/166 172/211/167 140/218/160
f 152/219/158 170/209/165 171/210/166 154/217/159
f 150/220/157 169/208/164 170/209/165 152/219/158
f 148/221/171 168/207/163 169/208/164 150/220/157
f 146/222/172 167/206/162 168/207/163 148/221/171
f 144/216/170 166/205/161 167/206/162 146/222/172
f 140/204/160 142/223/169 148/224/171 150/201/157
f 142/223/169 144/225/170 146/226/172 148/224/171
