# Blender v2.81 (sub 16) OBJ File: 'Cacti.blend'
# www.blender.org
mtllib DesertCactus2.mtl
o Cube.010_Cube.012
v 0.513704 7.302486 -1.449279
v 1.294089 6.942427 -1.225553
v -0.015363 5.956107 -0.444728
v 0.331815 5.795924 -0.345197
v 0.507504 7.630463 -0.899812
v 1.287889 7.270403 -0.676087
v -0.018121 6.102017 -0.200281
v 0.329057 5.941834 -0.100750
v 0.000177 6.781254 -1.237377
v 1.329445 6.167947 -0.856295
v -0.007578 7.191458 -0.550154
v 1.321690 6.578151 -0.169072
v -0.094487 5.950044 -0.273261
v 0.298455 5.768745 -0.160610
v 0.502333 7.579056 -1.234064
v 1.385588 7.171533 -0.980847
v 1.424706 6.342453 -0.483350
v -0.079785 7.036606 -0.914667
v -0.269625 0.501119 0.290988
v -0.618405 0.893743 0.197425
v -0.048347 0.472158 -0.655405
v -0.397126 0.864782 -0.748969
v 1.178169 1.858010 0.587978
v -0.136593 3.338049 0.235281
v 1.399448 1.829049 -0.358415
v 0.084686 3.309089 -0.711113
v 1.042415 1.136984 -0.541824
v -0.591116 2.975865 -0.980035
v 0.767486 1.172966 0.634027
v -0.866044 3.011847 0.195816
v 0.497034 0.804571 -0.598615
v -0.742225 1.952795 0.196620
v -0.494121 1.920324 -0.864502
v 0.248930 0.837042 0.462508
v -0.183858 0.354670 -0.183986
v -0.571211 0.790716 -0.287897
v 1.424055 1.861626 0.145850
v -0.036113 3.505351 -0.245854
v -0.816447 3.139173 -0.417101
v 0.997744 1.096921 0.069574
v 0.406943 0.725796 -0.057206
v -0.693829 1.964945 -0.352499
v 2.434504 4.295807 1.586286
v 2.085422 3.880667 1.774358
v 2.871919 3.924365 1.578271
v 2.522837 3.509224 1.766343
v 1.871429 3.684395 -0.808447
v 0.627709 2.162410 -0.185351
v 2.308844 3.312953 -0.816461
v 0.885868 1.943187 -0.190081
v 2.732670 3.687048 -0.004824
v 0.947710 1.940044 0.390391
v 2.189203 4.148548 0.005134
v 0.626958 2.212419 0.396268
v 2.749029 4.220267 1.705288
v 2.358229 3.755514 1.915836
v 2.118662 3.535787 -0.975632
v 0.680810 1.964324 -0.234018
v 0.715006 1.990558 0.416466
v 2.533776 4.005001 -0.065911
v -0.284497 0.000000 0.208901
v -0.284497 0.478318 0.034953
v -0.284497 0.000000 -0.208900
v -0.284497 0.478318 -0.382848
v 0.243410 0.000000 0.208901
v 0.366674 0.419610 0.208901
v 0.243410 0.000000 -0.208900
v 0.366674 0.419610 -0.208900
v 0.041088 0.000001 -0.208900
v 0.041089 0.535921 -0.208900
v 0.041088 0.000000 0.208901
v 0.041089 0.535921 0.208901
v -0.284497 0.000001 0.000000
v -0.354509 0.579430 -0.173948
v 0.243410 0.000001 0.000000
v 0.436686 0.520722 0.000000
v 0.041089 0.637033 0.000000
v 0.041088 0.000000 0.000001
v -2.534780 3.035654 0.315847
v -2.438378 3.601749 -0.546970
v -0.820049 2.459122 -0.339101
v -0.777162 2.710966 -0.722951
v -2.349311 3.299226 0.509499
v -2.252909 3.865321 -0.353317
v -0.737538 2.576380 -0.252949
v -0.694650 2.828224 -0.636799
v -1.883801 2.515503 0.308822
v -1.719595 3.479760 -1.160854
v -1.651834 2.845155 0.551026
v -1.487627 3.809413 -0.918651
v 0.170136 6.478234 -0.030960
v -1.016137 6.347424 -0.072260
v 0.043953 3.498598 0.043766
v -0.483796 3.440403 0.025393
v 0.213523 6.374038 -0.947166
v -0.972750 6.243227 -0.988465
v 0.063255 3.452242 -0.363836
v -0.464494 3.394047 -0.382209
v 0.545325 5.280269 0.239640
v -1.475311 5.057453 0.169294
v 0.599589 5.149949 -0.906267
v -1.421047 4.927134 -0.976613
v 0.124582 3.211900 -0.118226
v -0.496538 3.143409 -0.139850
v 0.286554 6.686367 -0.490503
v -1.109597 6.532413 -0.539108
v -1.643929 4.999613 -0.383231
v 0.734203 5.261850 -0.300438
v -1.923238 6.644532 -1.017844
v -1.496283 6.768687 -1.300083
v -0.924632 5.710004 -0.287929
v -0.734688 5.765238 -0.413491
v -1.806184 6.952473 -0.705310
v -1.379229 7.076629 -0.987549
v -0.872557 5.847001 -0.148888
v -0.682613 5.902235 -0.274451
v -1.683755 6.124534 -0.677890
v -0.956502 6.336014 -1.158642
v -1.537354 6.509679 -0.287000
v -0.810102 6.721159 -0.767753
vt 0.506780 0.901899
vt 0.516008 0.966269
vt 0.455852 0.954382
vt 0.453423 0.930528
vt 0.761291 0.792424
vt 0.789662 0.807404
vt 0.780226 0.815766
vt 0.758677 0.805110
vt 0.712893 0.845248
vt 0.770472 0.876668
vt 0.737705 0.900203
vt 0.700242 0.878987
vt 0.558050 0.886444
vt 0.572100 0.949899
vt 0.549273 0.944015
vt 0.542585 0.901784
vt 0.690112 0.831147
vt 0.681166 0.887802
vt 0.522162 0.995251
vt 0.444464 0.960481
vt 0.440288 0.928467
vt 0.501320 0.874421
vt 0.794420 0.891826
vt 0.735371 0.922743
vt 0.964061 0.005963
vt 0.987648 0.037145
vt 0.961171 0.049855
vt 0.950745 0.029201
vt 0.895522 0.047983
vt 0.937036 0.143381
vt 0.903997 0.152134
vt 0.867509 0.073678
vt 0.836032 0.289284
vt 0.890845 0.180806
vt 0.903497 0.207547
vt 0.867235 0.286775
vt 0.922443 0.322204
vt 0.954739 0.256427
vt 0.961543 0.307987
vt 0.951128 0.328720
vt 0.871484 0.341344
vt 0.895241 0.310284
vt 0.988092 0.246105
vt 0.988092 0.320689
vt 0.950370 0.179890
vt 0.937381 0.214594
vt 0.918264 0.355834
vt 0.922221 0.035820
vt 0.954381 0.101340
vt 0.964505 0.351912
vt 0.987648 0.111469
vt 0.950967 0.177460
vt 0.917679 0.002119
vt 0.870539 0.017296
vt 0.892060 0.178964
vt 0.836032 0.071478
vt 0.816253 0.538352
vt 0.778246 0.508514
vt 0.795978 0.493469
vt 0.818873 0.515078
vt 0.887702 0.459215
vt 0.798875 0.353116
vt 0.825367 0.331870
vt 0.909401 0.407229
vt 0.979611 0.816679
vt 0.979610 0.950537
vt 0.967659 0.941332
vt 0.961837 0.829515
vt 0.906916 0.815682
vt 0.935161 0.949535
vt 0.822245 0.867078
vt 0.819763 0.835324
vt 0.909389 0.788720
vt 0.935332 0.966994
vt 0.799258 0.871226
vt 0.799925 0.822839
vt 0.910949 0.473799
vt 0.785481 0.342388
vt 0.824316 0.317647
vt 0.931220 0.399297
vt 0.377428 0.588089
vt 0.341161 0.598292
vt 0.339653 0.583372
vt 0.370521 0.577167
vt 0.305647 0.641601
vt 0.336129 0.628519
vt 0.337803 0.649744
vt 0.310706 0.653181
vt 0.397990 0.642708
vt 0.367004 0.659357
vt 0.367323 0.644008
vt 0.391788 0.631022
vt 0.389214 0.618470
vt 0.360745 0.625735
vt 0.353915 0.606182
vt 0.384542 0.598879
vt 0.784812 0.019480
vt 0.784812 0.021888
vt 0.782326 0.021888
vt 0.782326 0.019480
vt 0.349072 0.626860
vt 0.338464 0.603675
vt 0.353255 0.649848
vt 0.784812 0.015606
vt 0.782326 0.015606
vt 0.296022 0.623613
vt 0.324142 0.608567
vt 0.787298 0.015606
vt 0.787298 0.019480
vt 0.787298 0.021888
vt 0.404311 0.654330
vt 0.379979 0.667563
vt 0.992974 0.534097
vt 0.905443 0.485256
vt 0.970112 0.450551
vt 0.992974 0.463307
vt 0.721107 0.794016
vt 0.695301 0.819240
vt 0.691464 0.805264
vt 0.710531 0.789748
vt 0.691185 0.729497
vt 0.632258 0.782504
vt 0.620133 0.739418
vt 0.656218 0.708359
vt 0.595803 0.731379
vt 0.653725 0.671170
vt 0.721107 0.708722
vt 0.603990 0.803338
vt 0.959927 0.567955
vt 0.908540 0.539281
vt 0.232048 0.960535
vt 0.264270 0.867048
vt 0.351340 0.931008
vt 0.339447 0.963068
vt 0.737250 0.605035
vt 0.696315 0.627603
vt 0.691055 0.603875
vt 0.720459 0.586567
vt 0.699202 0.482267
vt 0.614169 0.529525
vt 0.606313 0.460308
vt 0.660286 0.429958
vt 0.140684 0.939301
vt 0.166838 0.848401
vt 0.193581 0.871490
vt 0.173021 0.930853
vt 0.737250 0.462728
vt 0.663209 0.394008
vt 0.274856 0.828354
vt 0.374648 0.932229
vt 0.359728 0.975680
vt 0.220758 0.997243
vt 0.573811 0.548429
vt 0.576594 0.435922
vt 0.990220 0.409737
vt 0.942607 0.393353
vt 0.977784 0.352203
vt 0.990220 0.356482
vt 0.642782 0.828038
vt 0.663249 0.837046
vt 0.649745 0.847605
vt 0.641284 0.841698
vt 0.613476 0.869840
vt 0.645284 0.886162
vt 0.624492 0.903474
vt 0.608454 0.893863
vt 0.623029 0.934258
vt 0.571520 0.913981
vt 0.576766 0.847559
vt 0.678074 0.910611
vt 0.972357 0.442565
vt 0.944404 0.432946
vn -0.6073 -0.2152 -0.7647
vn 0.5670 -0.6791 -0.4662
vn 0.0320 -0.9592 -0.2809
vn -0.6006 -0.6536 -0.4604
vn -0.8394 -0.4676 0.2770
vn -0.0145 -0.8554 0.5178
vn 0.0181 -0.1993 0.9797
vn -0.6099 0.0952 0.7867
vn -0.6183 0.5649 0.5464
vn 0.5477 0.0975 0.8310
vn 0.5909 0.6938 0.4116
vn -0.1184 0.9653 0.2327
vn -0.1479 0.8515 -0.5031
vn 0.8426 0.4694 -0.2640
vn 0.6084 -0.0223 -0.7933
vn -0.1055 0.2591 -0.9601
vn -0.9268 0.3211 -0.1950
vn 0.8788 -0.4016 0.2575
vn -0.1483 -0.9889 -0.0044
vn -0.8797 -0.4349 -0.1924
vn -0.4976 -0.3233 -0.8049
vn 0.0327 -0.7634 -0.6451
vn 0.6404 -0.4783 -0.6009
vn -0.4364 0.3080 -0.8454
vn 0.3516 0.6950 -0.6271
vn 0.8825 0.0920 -0.4611
vn 0.9674 0.1208 0.2225
vn 0.1789 0.9838 0.0117
vn 0.0468 0.7349 0.6765
vn 0.5881 0.1305 0.7982
vn 0.0997 -0.5623 0.8209
vn -0.8254 -0.0935 0.5567
vn -0.8070 -0.2828 0.5184
vn -0.2668 -0.7242 0.6359
vn 0.7027 -0.6868 0.1853
vn 0.3014 -0.4340 0.8490
vn -0.9678 -0.1169 -0.2227
vn -0.8191 0.5345 -0.2079
vn -0.7615 0.3506 0.5452
vn 0.4973 -0.8558 0.1425
vn 0.4454 -0.6075 -0.6576
vn -0.4945 -0.1368 -0.8583
vn 0.5543 0.6413 0.5305
vn -0.0136 -0.0430 0.9990
vn 0.4892 -0.6285 0.6047
vn 0.9527 -0.1068 0.2845
vn 0.9622 -0.1334 -0.2376
vn 0.2308 -0.9142 0.3329
vn 0.2486 -0.8889 -0.3847
vn 0.6977 -0.3704 -0.6132
vn 0.1939 0.2359 -0.9522
vn -0.5646 -0.6395 -0.5218
vn -0.9152 0.1448 -0.3761
vn -0.4563 0.6532 -0.6041
vn -0.2641 0.9405 -0.2138
vn -0.9301 0.1105 0.3501
vn -0.6632 0.3912 0.6380
vn -0.2347 0.9227 0.3058
vn 0.5932 0.7069 -0.3852
vn -0.5669 -0.6705 0.4787
vn -0.6834 -0.7295 0.0276
vn -0.7383 0.6666 -0.1025
vn -0.4269 0.2936 -0.8553
vn -0.4789 -0.6650 -0.5730
vn 0.0916 -0.7396 -0.6667
vn 0.1828 0.5801 -0.7937
vn 0.6694 0.2163 -0.7107
vn 0.4595 -0.6412 -0.6146
vn 0.5825 -0.8128 0.0000
vn 0.8496 0.5273 0.0000
vn 0.6694 0.2163 0.7107
vn 0.4595 -0.6412 0.6146
vn -0.0996 -0.6824 0.7241
vn -0.0704 0.5640 0.8228
vn -0.7052 0.4103 0.5782
vn -0.6033 -0.4931 0.6268
vn 0.0000 -1.0000 0.0000
vn 0.0405 0.9965 0.0729
vn -0.2985 -0.9156 0.2693
vn -0.2204 -0.0170 -0.9752
vn 0.3959 -0.5265 -0.7523
vn 0.3178 -0.9425 -0.1035
vn 0.9497 0.2603 -0.1741
vn 0.8675 -0.1612 0.4705
vn 0.3431 -0.0037 0.9393
vn 0.3941 0.8564 -0.3335
vn -0.2884 0.9480 0.1345
vn -0.3318 0.4345 0.8373
vn -0.8720 0.1186 -0.4748
vn -0.8963 -0.3677 0.2479
vn 0.5646 0.0612 0.8231
vn -0.6328 -0.0120 0.7742
vn -0.3524 -0.4050 0.8437
vn 0.4061 -0.3138 0.8582
vn 0.5920 -0.7948 0.1337
vn -0.4047 -0.9090 0.0997
vn -0.2853 -0.6016 -0.7460
vn 0.4910 -0.5054 -0.7096
vn 0.6527 -0.1159 -0.7487
vn -0.5742 -0.1911 -0.7961
vn -0.3897 0.4232 -0.8179
vn 0.4254 0.4626 -0.7778
vn 0.5161 0.8548 -0.0548
vn -0.5965 0.7962 -0.1008
vn -0.4512 0.5790 0.6790
vn 0.3479 0.6154 0.7072
vn 0.9978 0.0205 0.0629
vn -0.9945 -0.1035 -0.0155
vn -0.7164 -0.6966 -0.0394
vn 0.4516 -0.2936 -0.8425
vn 0.6094 -0.7529 -0.2485
vn -0.1381 -0.9610 0.2397
vn 0.8798 -0.0415 0.4735
vn 0.1311 -0.2526 0.9586
vn -0.3636 0.2313 0.9023
vn 0.7931 0.6050 0.0695
vn 0.1493 0.9710 -0.1864
vn -0.6204 0.7014 0.3507
vn -0.1438 0.1997 -0.9692
vn -0.9077 -0.0542 -0.4161
usemtl Material.002
s 1
f 9/1/1 10/2/2 4/3/3 3/4/4
f 13/5/5 14/6/6 8/7/7 7/8/8
f 11/9/9 12/10/10 6/11/11 5/12/12
f 15/13/13 16/14/14 2/15/15 1/16/16
f 18/17/17 11/9/9 5/12/12 15/18/13
f 17/19/18 10/2/2 2/15/15 16/14/14
f 14/20/6 4/3/3 10/2/2 17/19/18
f 13/5/5 7/8/8 11/9/9 18/17/17
f 7/8/8 8/7/7 12/10/10 11/9/9
f 1/16/16 2/15/15 10/2/2 9/1/1
f 3/4/4 13/21/5 18/22/17 9/1/1
f 8/7/7 14/6/6 17/23/18 12/10/10
f 12/10/10 17/23/18 16/24/14 6/11/11
f 9/1/1 18/22/17 15/13/13 1/16/16
f 5/12/12 6/11/11 16/24/14 15/18/13
f 3/4/4 4/3/3 14/20/6 13/21/5
f 35/25/19 36/26/20 22/27/21 21/28/22
f 27/29/23 28/30/24 26/31/25 25/32/26
f 37/33/27 38/34/28 24/35/29 23/36/30
f 34/37/31 32/38/32 20/39/33 19/40/34
f 40/41/35 37/33/27 23/36/30 29/42/36
f 42/43/37 36/44/20 20/39/33 32/38/32
f 38/34/28 39/45/38 30/46/39 24/35/29
f 41/47/40 40/41/35 29/42/36 34/37/31
f 23/36/30 24/35/29 30/46/39 29/42/36
f 31/48/41 33/49/42 28/30/24 27/29/23
f 21/28/22 22/27/21 33/49/42 31/48/41
f 35/50/19 41/47/40 34/37/31 19/40/34
f 39/45/38 42/43/37 32/38/32 30/46/39
f 29/42/36 30/46/39 32/38/32 34/37/31
f 28/30/24 33/49/42 42/51/37 39/52/38
f 21/28/22 31/48/41 41/53/40 35/25/19
f 31/48/41 27/29/23 40/54/35 41/53/40
f 26/31/25 28/30/24 39/52/38 38/55/28
f 33/49/42 22/27/21 36/26/20 42/51/37
f 27/29/23 25/32/26 37/56/27 40/54/35
f 25/32/26 26/31/25 38/55/28 37/56/27
f 19/40/34 20/39/33 36/44/20 35/50/19
f 55/57/43 56/58/44 46/59/45 45/60/46
f 51/61/47 52/62/48 50/63/49 49/64/50
f 57/65/51 58/66/52 48/67/53 47/68/54
f 53/69/55 54/70/56 44/71/57 43/72/58
f 60/73/59 57/65/51 47/68/54 53/69/55
f 59/74/60 56/75/44 44/71/57 54/70/56
f 58/66/52 59/74/60 54/70/56 48/67/53
f 55/76/43 60/73/59 53/69/55 43/72/58
f 47/68/54 48/67/53 54/70/56 53/69/55
f 45/60/46 46/59/45 52/62/48 51/61/47
f 45/60/46 51/61/47 60/77/59 55/57/43
f 50/63/49 52/62/48 59/78/60 58/79/52
f 52/62/48 46/59/45 56/58/44 59/78/60
f 51/61/47 49/64/50 57/80/51 60/77/59
f 49/64/50 50/63/49 58/79/52 57/80/51
f 43/72/58 44/71/57 56/75/44 55/76/43
f 73/81/61 74/82/62 64/83/63 63/84/64
f 69/85/65 70/86/66 68/87/67 67/88/68
f 75/89/69 76/90/70 66/91/71 65/92/72
f 71/93/73 72/94/74 62/95/75 61/96/76
f 78/97/77 75/98/69 65/99/72 71/100/73
f 77/101/78 74/102/62 62/95/75 72/94/74
f 76/103/70 77/101/78 72/94/74 66/91/71
f 73/104/61 78/97/77 71/100/73 61/105/76
f 65/92/72 66/91/71 72/94/74 71/93/73
f 63/106/64 64/107/63 70/86/66 69/85/65
f 63/108/64 69/109/65 78/97/77 73/104/61
f 68/87/67 70/86/66 77/101/78 76/103/70
f 70/86/66 64/107/63 74/102/62 77/101/78
f 69/109/65 67/110/68 75/98/69 78/97/77
f 67/111/68 68/112/67 76/90/70 75/89/69
f 61/96/76 62/95/75 74/82/62 73/81/61
f 87/113/79 88/114/80 82/115/81 81/116/82
f 81/117/82 82/118/81 86/119/83 85/120/84
f 89/121/85 90/122/86 84/123/87 83/124/88
f 83/124/88 84/123/87 80/125/89 79/126/90
f 87/127/79 89/121/85 83/124/88 79/126/90
f 90/122/86 88/128/80 80/125/89 84/123/87
f 86/119/83 82/118/81 88/128/80 90/122/86
f 81/117/82 85/120/84 89/121/85 87/127/79
f 85/120/84 86/119/83 90/122/86 89/121/85
f 79/129/90 80/130/89 88/114/80 87/113/79
f 99/131/91 100/132/92 94/133/93 93/134/94
f 103/135/95 104/136/96 98/137/97 97/138/98
f 101/139/99 102/140/100 96/141/101 95/142/102
f 105/143/103 106/144/104 92/145/105 91/146/106
f 108/147/107 101/139/99 95/142/102 105/148/103
f 107/149/108 100/132/92 92/145/105 106/144/104
f 104/150/96 94/133/93 100/132/92 107/149/108
f 103/135/95 97/138/98 101/139/99 108/147/107
f 97/138/98 98/137/97 102/140/100 101/139/99
f 91/146/106 92/145/105 100/132/92 99/131/91
f 93/134/94 103/151/95 108/152/107 99/131/91
f 98/137/97 104/136/96 107/153/108 102/140/100
f 102/140/100 107/153/108 106/154/104 96/141/101
f 99/131/91 108/152/107 105/143/103 91/146/106
f 95/142/102 96/141/101 106/154/104 105/148/103
f 93/134/94 94/133/93 104/150/96 103/151/95
f 117/155/109 118/156/110 112/157/111 111/158/112
f 111/159/112 112/160/111 116/161/113 115/162/114
f 119/163/115 120/164/116 114/165/117 113/166/118
f 113/166/118 114/165/117 110/167/119 109/168/120
f 117/169/109 119/163/115 113/166/118 109/168/120
f 120/164/116 118/170/110 110/167/119 114/165/117
f 116/161/113 112/160/111 118/170/110 120/164/116
f 111/159/112 115/162/114 119/163/115 117/169/109
f 115/162/114 116/161/113 120/164/116 119/163/115
f 109/171/120 110/172/119 118/156/110 117/155/109
