# Blender v2.81 (sub 16) OBJ File: 'UnhappyTreeFriends.blend'
# www.blender.org
mtllib House.mtl
o TinyHouse_Plane.002
v -0.362265 0.365399 0.731960
v -0.405499 0.951898 0.868132
v -0.362265 0.365399 -0.731960
v -0.405499 0.951898 -0.868133
v 0.271768 0.365399 0.731960
v 0.315003 0.951898 0.868132
v 0.271768 0.365399 -0.731960
v 0.315003 0.951898 -0.868133
v -1.277071 -0.002414 0.639419
v -1.401765 1.319710 0.960209
v -1.401765 1.319710 -0.960209
v -1.277071 -0.002414 -0.639419
v 0.834877 -0.005064 -0.231833
v 0.936139 0.896188 -0.348141
v 0.936139 0.896188 0.348141
v 0.834877 -0.005064 0.231833
v -0.362265 0.365399 0.673106
v -0.405499 0.951898 0.798329
v -0.405499 0.951898 -0.798330
v -0.362265 0.365399 -0.673107
v 0.271768 0.365399 -0.673107
v 0.315003 0.951898 -0.798330
v 0.315003 0.951898 0.798329
v 0.271768 0.365399 0.673106
v 0.974281 1.319710 -0.960209
v 0.834877 -0.002414 -0.639419
v 0.834877 -0.002414 0.639419
v 0.974281 1.319710 0.960209
v -1.459588 1.936890 0.015717
v -1.459588 1.936890 -0.015718
v 1.032104 1.936890 -0.015718
v 1.032104 1.936890 0.015717
v 0.844576 0.896188 -0.348141
v 0.753492 -0.005064 -0.231833
v 0.753492 -0.005064 0.231833
v 0.844576 0.896188 0.348141
v -1.495856 1.178832 -1.161108
v 1.068371 1.178832 -1.161108
v -1.630669 1.936890 0.017875
v -1.630669 1.936890 -0.017876
v 1.068371 1.178832 1.161108
v -1.495856 1.178832 1.161108
v 1.203185 1.998230 -0.017876
v 1.203185 1.936890 -0.017876
v 1.203185 1.936890 0.017875
v 1.068371 1.240172 -1.161108
v -1.495856 1.240172 -1.161108
v -1.630669 1.998230 0.017875
v -1.630669 1.998230 -0.017876
v 1.068371 1.240172 1.161108
v -1.495856 1.240172 1.161108
v 1.203185 1.998230 0.017875
vt 0.350751 0.762055
vt 0.475655 0.731883
vt 0.475655 0.912508
vt 0.350751 0.882336
vt 0.900600 0.418792
vt 0.965850 0.417945
vt 0.960019 0.423168
vt 0.907334 0.426358
vt 0.456833 0.674214
vt 0.451235 0.594466
vt 0.461322 0.599683
vt 0.464733 0.669255
vt 0.964587 0.487741
vt 0.957056 0.481427
vt 0.960103 0.423259
vt 0.775453 0.178666
vt 0.806491 0.325265
vt 0.547864 0.302293
vt 0.577577 0.176193
vt 0.409465 0.541440
vt 0.410194 0.724450
vt 0.350765 0.635174
vt 0.350751 0.631683
vt 0.903015 0.478841
vt 0.999709 0.585096
vt 0.864401 0.567244
vt 0.921099 0.099107
vt 0.857999 0.101962
vt 0.819908 0.015085
vt 0.956547 0.000291
vt 0.858938 0.161836
vt 0.826587 0.213355
vt 0.922989 0.167955
vt 0.956547 0.228984
vt 0.868538 0.369335
vt 0.999709 0.355939
vt 0.342267 0.601320
vt 0.285844 0.605388
vt 0.285844 0.537601
vt 0.342267 0.541668
vt 0.349712 0.693503
vt 0.293289 0.697570
vt 0.293289 0.629783
vt 0.349712 0.633851
vt 0.915231 0.161927
vt 0.915696 0.104445
vt 0.915613 0.104359
vt 0.864356 0.109095
vt 0.907134 0.426405
vt 0.907047 0.472240
vt 0.863283 0.154807
vt 0.915173 0.162090
vt 0.864169 0.109138
vt 0.863147 0.154774
vt 0.907175 0.472270
vt 0.956990 0.481588
vt 0.533099 0.708428
vt 0.521549 0.731301
vt 0.533958 0.820215
vt 0.533958 0.823674
vt 0.533144 0.561050
vt 0.521868 0.537601
vt 0.554983 0.176116
vt 0.554976 0.173186
vt 0.572140 0.172683
vt 0.572249 0.176534
vt 0.218408 0.830308
vt 0.133183 0.841250
vt 0.133183 0.775741
vt 0.218408 0.786684
vt 0.536672 0.702343
vt 0.536672 0.567445
vt 0.577655 0.173055
vt 0.775553 0.175302
vt 0.537254 0.281695
vt 0.542781 0.304185
vt 0.794253 0.355357
vt 0.554606 0.334071
vt 0.547314 0.308480
vt 0.805941 0.331452
vt 0.537551 0.066703
vt 0.543253 0.044006
vt 0.781533 0.174833
vt 0.781662 0.179154
vt 0.812319 0.327584
vt 0.812534 0.028371
vt 0.806765 0.030638
vt 0.547991 0.039757
vt 0.806399 0.024457
vt 0.548357 0.045939
vt 0.801147 0.175240
vt 0.801164 0.178576
vt 0.819326 0.301514
vt 0.819326 0.054006
vt 0.556009 0.014468
vt 0.795453 0.000291
vn -0.9956 -0.0939 0.0000
vn -0.9973 0.0735 0.0000
vn 0.0000 -1.0000 0.0000
vn 0.0000 0.8334 -0.5526
vn 0.9956 -0.0933 0.0000
vn -0.0002 -0.2329 0.9725
vn -0.0002 -0.2329 -0.9725
vn 0.0000 -0.2440 -0.9698
vn 0.0000 -0.2428 -0.9701
vn 0.0004 -0.2329 -0.9725
vn 0.0004 -0.2329 0.9725
vn 0.0000 -0.2440 0.9698
vn 0.0000 -0.2428 0.9701
vn 0.0000 -0.2088 -0.9780
vn 0.0000 -0.2088 0.9780
vn 0.9973 0.0735 0.0000
vn 0.0000 1.0000 0.0000
vn 0.9940 -0.1093 -0.0085
vn -0.9956 -0.0933 0.0000
vn 0.9960 -0.0897 0.0000
vn 0.9940 -0.1093 0.0085
vn 0.9949 -0.1006 0.0000
vn 0.0000 0.1280 0.9918
vn 0.0000 0.1280 -0.9918
vn 0.0209 -0.8340 0.5513
vn 0.0000 -0.8188 0.5741
vn 0.0209 -0.8340 -0.5513
vn -0.9931 0.0000 -0.1171
vn 1.0000 0.0000 0.0000
vn 0.9931 0.0000 -0.1171
vn 0.9931 0.0000 0.1171
vn 0.0000 0.0000 1.0000
vn -1.0000 0.0000 0.0000
vn 0.0000 0.0000 -1.0000
vn -0.9931 0.0000 0.1171
vn -0.0209 -0.8340 0.5513
vn -0.0209 -0.8340 -0.5513
vn 0.0000 0.8334 0.5526
vn 0.0000 -0.8188 -0.5741
usemtl None
s off
f 9/1/1 10/2/1 11/3/1 12/4/1
f 5/5/2 6/6/2 23/7/2 24/8/2
f 14/9/3 15/10/3 36/11/3 33/12/3
f 6/6/3 2/13/3 18/14/3 23/15/3
f 43/16/4 46/17/4 47/18/4 49/19/4
f 28/20/5 25/21/5 31/22/5 32/23/5
f 1/24/6 2/13/6 10/25/6 9/26/6
f 4/27/7 3/28/7 12/29/7 11/30/7
f 3/28/8 7/31/8 26/32/8 12/29/8
f 8/33/9 4/27/9 11/30/9 25/34/9
f 7/31/10 8/33/10 25/34/10 26/32/10
f 6/6/11 5/5/11 27/35/11 28/36/11
f 5/5/12 1/24/12 9/26/12 27/35/12
f 2/13/13 6/6/13 28/36/13 10/25/13
f 20/37/14 19/38/14 22/39/14 21/40/14
f 24/41/15 23/42/15 18/43/15 17/44/15
f 4/27/3 8/33/3 22/45/3 19/46/3
f 3/28/16 4/27/16 19/47/16 20/48/16
f 1/24/17 5/5/17 24/49/17 17/50/17
f 8/33/2 7/31/2 21/51/2 22/52/2
f 7/31/17 3/28/17 20/53/17 21/54/17
f 2/13/16 1/24/16 17/55/16 18/56/16
f 14/9/18 13/57/18 26/58/18 25/21/18
f 11/3/19 10/2/19 29/59/19 30/60/19
f 15/10/20 14/9/20 25/21/20 28/20/20
f 16/61/21 15/10/21 28/20/21 27/62/21
f 30/63/3 29/64/3 39/65/3 40/66/3
f 34/67/22 33/68/22 36/69/22 35/70/22
f 13/57/23 14/9/23 33/12/23 34/71/23
f 15/10/24 16/61/24 35/72/24 36/11/24
f 43/16/17 49/19/17 48/73/17 52/74/17
f 11/75/25 30/63/25 40/66/25 37/76/25
f 25/77/26 11/78/26 37/79/26 38/80/26
f 29/64/27 10/81/27 42/82/27 39/65/27
f 37/76/28 40/66/28 49/19/28 47/18/28
f 45/83/29 44/84/29 43/16/29 52/74/29
f 44/84/30 38/85/30 46/17/30 43/16/30
f 41/86/31 45/83/31 52/74/31 50/87/31
f 42/88/32 41/89/32 50/87/32 51/90/32
f 40/66/33 39/65/33 48/73/33 49/19/33
f 38/80/34 37/79/34 47/18/34 46/17/34
f 39/65/35 42/82/35 51/90/35 48/73/35
f 32/91/3 31/92/3 44/84/3 45/83/3
f 31/92/36 25/93/36 38/85/36 44/84/36
f 28/94/37 32/91/37 45/83/37 41/86/37
f 51/90/38 50/87/38 52/74/38 48/73/38
f 10/95/39 28/96/39 41/89/39 42/88/39
