# Blender v2.81 (sub 16) OBJ File: 'UnhappyTreeFriends.blend'
# www.blender.org
mtllib MountainTree2.mtl
o MountainTree2_Plane.004
v -0.000000 -0.010485 -0.180391
v -0.000000 0.890051 -0.068754
v 0.092825 -0.010485 -0.127555
v 0.035379 0.890051 -0.048616
v 0.131274 -0.010485 0.000002
v 0.050034 0.890051 0.000001
v 0.092825 -0.010485 0.127560
v 0.035379 0.890051 0.048620
v -0.000000 -0.010485 0.180395
v -0.000000 0.890051 0.068758
v -0.092825 -0.010485 0.127560
v -0.035380 0.890051 0.048620
v -0.131274 -0.010485 0.000002
v -0.050035 0.890051 0.000001
v -0.092825 -0.010485 -0.127555
v -0.035380 0.890051 -0.048616
v -0.000000 1.021168 -0.180391
v -0.000000 0.512297 -0.764365
v 0.393320 0.512297 -0.540486
v 0.092825 1.021168 -0.127555
v 0.556240 0.512297 0.000003
v 0.131274 1.021168 0.000002
v 0.393320 0.512297 0.540493
v 0.092825 1.021168 0.127560
v -0.000000 0.512297 0.764372
v -0.000000 1.021168 0.180395
v -0.393321 0.512297 0.540493
v -0.092825 1.021168 0.127560
v -0.556240 0.512297 0.000003
v -0.131274 1.021168 0.000002
v -0.393321 0.512297 -0.540486
v -0.092825 1.021168 -0.127555
v -0.000000 1.365621 -0.180391
v -0.000000 0.856750 -0.566973
v 0.291748 0.856750 -0.400909
v 0.092825 1.365621 -0.127555
v 0.412595 0.856750 0.000003
v 0.131274 1.365621 0.000002
v 0.291748 0.856750 0.400916
v 0.092825 1.365621 0.127560
v -0.000000 0.856750 0.566980
v -0.000000 1.365621 0.180395
v -0.291749 0.856750 0.400916
v -0.092825 1.365621 0.127560
v -0.412596 0.856750 0.000003
v -0.131274 1.365621 0.000002
v -0.291749 0.856750 -0.400909
v -0.092825 1.365621 -0.127555
v -0.000000 1.815285 -0.056475
v -0.000000 1.254679 -0.411508
v 0.211751 1.254679 -0.290979
v 0.029061 1.815285 -0.039934
v 0.299461 1.254679 0.000003
v 0.041099 1.815285 0.000002
v 0.211751 1.254679 0.290985
v 0.029061 1.815285 0.039938
v -0.000000 1.254679 0.411514
v -0.000000 1.815285 0.056480
v -0.211751 1.254679 0.290985
v -0.029062 1.815285 0.039938
v -0.299462 1.254679 0.000003
v -0.041100 1.815285 0.000002
v -0.211751 1.254679 -0.290979
v -0.029062 1.815285 -0.039934
vt 0.411497 0.476259
vt 0.547491 0.530055
vt 0.548173 0.555552
vt 0.411631 0.612391
vt 0.413475 0.878350
vt 0.902149 0.843732
vt 0.903091 0.854359
vt 0.415947 0.906231
vt 0.904408 0.864946
vt 0.419402 0.934008
vt 0.507966 0.709087
vt 0.567367 0.572240
vt 0.592768 0.570862
vt 0.646036 0.710293
vt 0.419401 0.710818
vt 0.904408 0.779877
vt 0.903091 0.790464
vt 0.415946 0.738594
vt 0.902149 0.801091
vt 0.413475 0.766475
vt 0.901583 0.811745
vt 0.411991 0.794427
vt 0.901395 0.822412
vt 0.411497 0.822413
vt 0.901583 0.833079
vt 0.411991 0.850399
vt 0.506551 0.376922
vt 0.564556 0.511672
vt 0.744838 0.612902
vt 0.609521 0.552404
vt 0.607852 0.527917
vt 0.744838 0.473439
vt 0.644066 0.376113
vt 0.589311 0.512332
vt 0.000262 0.782982
vt 0.109651 0.825712
vt 0.110543 0.848889
vt 0.000881 0.894597
vt 0.079715 0.973622
vt 0.128538 0.863457
vt 0.151604 0.861573
vt 0.193265 0.974881
vt 0.077762 0.700843
vt 0.124792 0.808928
vt 0.274855 0.894791
vt 0.166263 0.844647
vt 0.164012 0.822927
vt 0.274855 0.779654
vt 0.191010 0.699599
vt 0.147017 0.809848
vt 0.899302 0.376352
vt 0.856693 0.477200
vt 0.850283 0.478281
vt 0.809353 0.376113
vt 0.745362 0.440109
vt 0.846570 0.483605
vt 0.847650 0.489998
vt 0.745853 0.530504
vt 0.961486 0.439026
vt 0.861946 0.481206
vt 0.810231 0.593118
vt 0.852706 0.493824
vt 0.858756 0.492858
vt 0.899672 0.591374
vt 0.961486 0.526482
vt 0.862098 0.487842
vt 0.202731 0.699074
vt 0.084128 0.699074
vt 0.000262 0.615210
vt 0.000262 0.496606
vt 0.286596 0.615209
vt 0.084127 0.412741
vt 0.286596 0.496606
vt 0.202730 0.412741
vt 0.999738 0.150445
vt 0.937530 0.212652
vt 0.849555 0.212652
vt 0.787348 0.150444
vt 0.999738 0.062470
vt 0.787348 0.062470
vt 0.937530 0.000262
vt 0.849556 0.000262
vt 0.941500 0.322179
vt 0.896350 0.367329
vt 0.832498 0.367329
vt 0.787348 0.322179
vt 0.941500 0.258327
vt 0.787348 0.258327
vt 0.896350 0.213177
vt 0.832498 0.213177
vt 0.294664 0.438497
vt 0.287120 0.430953
vt 0.287120 0.420285
vt 0.294664 0.412741
vt 0.305332 0.438497
vt 0.305333 0.412741
vt 0.312876 0.430953
vt 0.312876 0.420285
vn 0.7172 -0.3269 0.6154
vn 0.3831 0.8833 0.2701
vn 0.0000 0.8965 0.4429
vn 0.0000 -0.2808 0.9597
vn 0.0000 0.1230 -0.9924
vn 0.0000 0.6568 -0.7540
vn 0.5831 0.6709 -0.4582
vn 0.7736 0.1041 -0.6250
vn 0.7325 0.6807 0.0000
vn 0.9959 0.0898 0.0000
vn -0.7172 -0.3269 0.6154
vn -0.3831 0.8833 0.2701
vn -0.4840 0.8751 0.0000
vn -0.9287 -0.3706 0.0000
vn 0.5831 0.6709 0.4582
vn 0.7736 0.1041 0.6250
vn 0.0000 0.6568 0.7540
vn 0.0000 0.1230 0.9924
vn -0.5831 0.6709 0.4582
vn -0.7736 0.1041 0.6250
vn -0.7325 0.6807 0.0000
vn -0.9959 0.0898 0.0000
vn -0.5831 0.6709 -0.4582
vn -0.7736 0.1041 -0.6250
vn 0.9287 -0.3706 0.0000
vn 0.4840 0.8751 0.0000
vn -0.7172 -0.3269 -0.6154
vn -0.3831 0.8833 -0.2701
vn 0.0000 0.8965 -0.4429
vn 0.0000 -0.2808 -0.9597
vn 0.7172 -0.3269 -0.6154
vn 0.3831 0.8833 -0.2701
vn 0.6968 -0.4080 0.5898
vn 0.4540 0.8271 0.3312
vn 0.0000 0.8378 0.5460
vn 0.0000 -0.3606 0.9327
vn -0.6968 -0.4080 0.5898
vn -0.4540 0.8271 0.3312
vn -0.5716 0.8205 0.0000
vn -0.8934 -0.4492 0.0000
vn 0.8934 -0.4492 0.0000
vn 0.5716 0.8205 0.0000
vn -0.6968 -0.4080 -0.5898
vn -0.4540 0.8271 -0.3312
vn 0.0000 0.8378 -0.5460
vn 0.0000 -0.3606 -0.9327
vn 0.6968 -0.4080 -0.5898
vn 0.4540 0.8271 -0.3312
vn 0.6872 -0.4401 0.5780
vn 0.4794 0.8028 0.3545
vn 0.0000 0.8109 0.5852
vn 0.0000 -0.3938 0.9192
vn -0.6872 -0.4401 0.5780
vn -0.4794 0.8028 0.3545
vn -0.6029 0.7978 0.0000
vn -0.8778 -0.4789 0.0000
vn 0.8778 -0.4789 0.0000
vn 0.6029 0.7978 0.0000
vn -0.6872 -0.4401 -0.5780
vn -0.4794 0.8028 -0.3545
vn 0.0000 0.8109 -0.5852
vn 0.0000 -0.3938 -0.9192
vn 0.6872 -0.4401 -0.5780
vn 0.4794 0.8028 -0.3545
usemtl None
s 1
f 23/1/1 24/2/2 26/3/3 25/4/4
f 1/5/5 2/6/6 4/7/7 3/8/8
f 3/8/8 4/7/7 6/9/9 5/10/10
f 27/11/11 28/12/12 30/13/13 29/14/14
f 5/15/10 6/16/9 8/17/15 7/18/16
f 7/18/16 8/17/15 10/19/17 9/20/18
f 9/20/18 10/19/17 12/21/19 11/22/20
f 11/22/20 12/21/19 14/23/21 13/24/22
f 13/24/22 14/23/21 16/25/23 15/26/24
f 25/4/4 26/3/3 28/12/12 27/11/11
f 15/26/24 16/25/23 2/6/6 1/5/5
f 21/27/25 22/28/26 24/2/2 23/1/1
f 31/29/27 32/30/28 17/31/29 18/32/30
f 19/33/31 20/34/32 22/28/26 21/27/25
f 18/32/30 17/31/29 20/34/32 19/33/31
f 29/14/14 30/13/13 32/30/28 31/29/27
f 39/35/33 40/36/34 42/37/35 41/38/36
f 43/39/37 44/40/38 46/41/39 45/42/40
f 41/38/36 42/37/35 44/40/38 43/39/37
f 37/43/41 38/44/42 40/36/34 39/35/33
f 47/45/43 48/46/44 33/47/45 34/48/46
f 35/49/47 36/50/48 38/44/42 37/43/41
f 34/48/46 33/47/45 36/50/48 35/49/47
f 45/42/40 46/41/39 48/46/44 47/45/43
f 55/51/49 56/52/50 58/53/51 57/54/52
f 59/55/53 60/56/54 62/57/55 61/58/56
f 57/54/52 58/53/51 60/56/54 59/55/53
f 53/59/57 54/60/58 56/52/50 55/51/49
f 63/61/59 64/62/60 49/63/61 50/64/62
f 51/65/63 52/66/64 54/60/58 53/59/57
f 50/64/62 49/63/61 52/66/64 51/65/63
f 61/58/56 62/57/55 64/62/60 63/61/59
f 21/67/25 23/68/1 25/69/4 27/70/11
f 19/71/31 21/67/25 27/70/11 29/72/14
f 18/73/30 19/71/31 29/72/14 31/74/27
f 37/75/41 39/76/33 41/77/36 43/78/37
f 35/79/47 37/75/41 43/78/37 45/80/40
f 34/81/46 35/79/47 45/80/40 47/82/43
f 53/83/57 55/84/49 57/85/52 59/86/53
f 51/87/63 53/83/57 59/86/53 61/88/56
f 50/89/62 51/87/63 61/88/56 63/90/59
f 12/91/19 10/92/17 8/93/15 6/94/9
f 14/95/21 12/91/19 6/94/9 4/96/7
f 16/97/23 14/95/21 4/96/7 2/98/6
f 44/40/38 42/37/35 40/36/34 38/44/42
f 46/41/39 44/40/38 38/44/42 36/50/48
f 48/46/44 46/41/39 36/50/48 33/47/45
f 28/12/12 26/3/3 24/2/2 22/28/26
f 30/13/13 28/12/12 22/28/26 20/34/32
f 32/30/28 30/13/13 20/34/32 17/31/29
f 60/56/54 58/53/51 56/52/50 54/60/58
f 62/57/55 60/56/54 54/60/58 52/66/64
f 64/62/60 62/57/55 52/66/64 49/63/61
