# Blender v2.81 (sub 16) OBJ File: 'UnhappyTreeFriends.blend'
# www.blender.org
mtllib MountainTree3.mtl
o MountainTree3_Plane.005
v -0.035380 0.890051 -0.035968
v -0.092825 -0.010485 -0.094372
v -0.050035 0.890051 0.000002
v -0.131274 -0.010485 0.000002
v -0.035380 0.890051 0.035972
v -0.092825 -0.010485 0.094377
v -0.000000 0.890051 0.050872
v -0.000000 -0.010485 0.133467
v 0.035379 0.890051 0.035972
v 0.092825 -0.010485 0.094377
v 0.050034 0.890051 0.000002
v 0.131274 -0.010485 0.000002
v 0.035379 0.890051 -0.035968
v 0.092825 -0.010485 -0.094372
v -0.000000 0.890051 -0.050868
v -0.000000 -0.010485 -0.133463
v -0.000000 0.928628 -0.133463
v -0.000000 0.419757 -0.419479
v 0.291748 0.419757 -0.296615
v 0.092825 0.928628 -0.094372
v 0.412595 0.419757 0.000003
v 0.131274 0.928628 0.000002
v 0.291748 0.419757 0.296621
v 0.092825 0.928628 0.094377
v -0.000000 0.419757 0.419485
v -0.000000 0.928628 0.133467
v -0.291749 0.419757 0.296621
v -0.092825 0.928628 0.094377
v -0.412596 0.419757 0.000003
v -0.131274 0.928628 0.000002
v -0.291749 0.419757 -0.296615
v -0.092825 0.928628 -0.094372
v -0.000000 1.378292 -0.041783
v -0.000000 0.817686 -0.304457
v 0.211751 0.817686 -0.215282
v 0.029061 1.378292 -0.029545
v 0.299461 0.817686 0.000003
v 0.041099 1.378292 0.000002
v 0.211751 0.817686 0.215288
v 0.029061 1.378292 0.029549
v -0.000000 0.817686 0.304462
v -0.000000 1.378292 0.041788
v -0.211751 0.817686 0.215288
v -0.029062 1.378292 0.029549
v -0.299462 0.817686 0.000003
v -0.041100 1.378292 0.000002
v -0.211751 0.817686 -0.215282
v -0.029062 1.378292 -0.029545
vt 0.411991 0.850399
vt 0.901583 0.833079
vt 0.902149 0.843732
vt 0.413475 0.878350
vt 0.411497 0.822413
vt 0.901395 0.822412
vt 0.411991 0.794427
vt 0.901583 0.811745
vt 0.413475 0.766475
vt 0.902149 0.801091
vt 0.415946 0.738594
vt 0.903091 0.790464
vt 0.419401 0.710818
vt 0.904408 0.779877
vt 0.415947 0.906231
vt 0.903091 0.854359
vt 0.904408 0.864946
vt 0.419402 0.934008
vt 0.000262 0.782982
vt 0.109651 0.825712
vt 0.110543 0.848889
vt 0.000881 0.894597
vt 0.079715 0.973622
vt 0.128538 0.863457
vt 0.151604 0.861573
vt 0.193265 0.974881
vt 0.077762 0.700843
vt 0.124792 0.808928
vt 0.274855 0.894791
vt 0.166263 0.844647
vt 0.164012 0.822927
vt 0.274855 0.779654
vt 0.191010 0.699599
vt 0.147017 0.809848
vt 0.899302 0.376352
vt 0.856693 0.477200
vt 0.850283 0.478281
vt 0.809353 0.376113
vt 0.745362 0.440109
vt 0.846570 0.483605
vt 0.847650 0.489998
vt 0.745853 0.530504
vt 0.961486 0.439026
vt 0.861946 0.481206
vt 0.810231 0.593118
vt 0.852706 0.493824
vt 0.858756 0.492858
vt 0.899672 0.591374
vt 0.961486 0.526482
vt 0.862098 0.487842
vt 0.999738 0.150445
vt 0.937530 0.212652
vt 0.849555 0.212652
vt 0.787348 0.150444
vt 0.999738 0.062470
vt 0.787348 0.062470
vt 0.937530 0.000262
vt 0.849556 0.000262
vt 0.941500 0.322179
vt 0.896350 0.367329
vt 0.832498 0.367329
vt 0.787348 0.322179
vt 0.941500 0.258327
vt 0.787348 0.258327
vt 0.896350 0.213177
vt 0.832498 0.213177
vt 0.294664 0.438497
vt 0.287120 0.430953
vt 0.287120 0.420285
vt 0.294664 0.412741
vt 0.305332 0.438497
vt 0.305333 0.412741
vt 0.312876 0.430953
vt 0.312876 0.420285
vn -0.7081 0.0906 -0.7003
vn -0.5320 0.6640 -0.5254
vn 0.0000 0.6633 -0.7483
vn 0.0000 0.0913 -0.9958
vn -0.9959 0.0898 0.0000
vn -0.7471 0.6647 0.0000
vn -0.7081 0.0906 0.7003
vn -0.5320 0.6640 0.5254
vn 0.0000 0.0913 0.9958
vn 0.0000 0.6633 0.7483
vn 0.7081 0.0906 0.7003
vn 0.5320 0.6640 0.5254
vn 0.9959 0.0898 0.0000
vn 0.7471 0.6647 0.0000
vn 0.7081 0.0906 -0.7003
vn 0.5320 0.6640 -0.5254
vn 0.6404 -0.4323 0.6348
vn 0.4195 0.8083 0.4129
vn 0.0000 0.8087 0.5882
vn 0.0000 -0.4300 0.9028
vn -0.6404 -0.4323 0.6348
vn -0.4195 0.8083 0.4129
vn -0.5891 0.8080 0.0000
vn -0.9006 -0.4345 0.0000
vn 0.9006 -0.4345 0.0000
vn 0.5891 0.8080 0.0000
vn -0.6404 -0.4323 -0.6348
vn -0.4195 0.8083 -0.4129
vn 0.0000 0.8087 -0.5882
vn 0.0000 -0.4300 -0.9028
vn 0.6404 -0.4323 -0.6348
vn 0.4195 0.8083 -0.4129
vn 0.6301 -0.4616 0.6244
vn 0.4417 0.7846 0.4350
vn 0.0000 0.7848 0.6197
vn 0.0000 -0.4594 0.8882
vn -0.6301 -0.4616 0.6244
vn -0.4417 0.7846 0.4350
vn -0.6203 0.7844 0.0000
vn -0.8860 -0.4637 0.0000
vn 0.8860 -0.4637 0.0000
vn 0.6203 0.7844 0.0000
vn -0.6301 -0.4616 -0.6244
vn -0.4417 0.7846 -0.4350
vn 0.0000 0.7848 -0.6197
vn 0.0000 -0.4594 -0.8882
vn 0.6301 -0.4616 -0.6244
vn 0.4417 0.7846 -0.4350
usemtl None
s 1
f 2/1/1 1/2/2 15/3/3 16/4/4
f 4/5/5 3/6/6 1/2/2 2/1/1
f 6/7/7 5/8/8 3/6/6 4/5/5
f 8/9/9 7/10/10 5/8/8 6/7/7
f 10/11/11 9/12/12 7/10/10 8/9/9
f 12/13/13 11/14/14 9/12/12 10/11/11
f 14/15/15 13/16/16 11/17/14 12/18/13
f 16/4/4 15/3/3 13/16/16 14/15/15
f 23/19/17 24/20/18 26/21/19 25/22/20
f 27/23/21 28/24/22 30/25/23 29/26/24
f 25/22/20 26/21/19 28/24/22 27/23/21
f 21/27/25 22/28/26 24/20/18 23/19/17
f 31/29/27 32/30/28 17/31/29 18/32/30
f 19/33/31 20/34/32 22/28/26 21/27/25
f 18/32/30 17/31/29 20/34/32 19/33/31
f 29/26/24 30/25/23 32/30/28 31/29/27
f 39/35/33 40/36/34 42/37/35 41/38/36
f 43/39/37 44/40/38 46/41/39 45/42/40
f 41/38/36 42/37/35 44/40/38 43/39/37
f 37/43/41 38/44/42 40/36/34 39/35/33
f 47/45/43 48/46/44 33/47/45 34/48/46
f 35/49/47 36/50/48 38/44/42 37/43/41
f 34/48/46 33/47/45 36/50/48 35/49/47
f 45/42/40 46/41/39 48/46/44 47/45/43
f 21/51/25 23/52/17 25/53/20 27/54/21
f 19/55/31 21/51/25 27/54/21 29/56/24
f 18/57/30 19/55/31 29/56/24 31/58/27
f 37/59/41 39/60/33 41/61/36 43/62/37
f 35/63/47 37/59/41 43/62/37 45/64/40
f 34/65/46 35/63/47 45/64/40 47/66/43
f 5/67/8 7/68/10 9/69/12 11/70/14
f 3/71/6 5/67/8 11/70/14 13/72/16
f 1/73/2 3/71/6 13/72/16 15/74/3
f 28/24/22 26/21/19 24/20/18 22/28/26
f 30/25/23 28/24/22 22/28/26 20/34/32
f 32/30/28 30/25/23 20/34/32 17/31/29
f 44/40/38 42/37/35 40/36/34 38/44/42
f 46/41/39 44/40/38 38/44/42 36/50/48
f 48/46/44 46/41/39 36/50/48 33/47/45
