# Blender v2.81 (sub 16) OBJ File: 'UnhappyTreeFriends.blend'
# www.blender.org
mtllib Scyscraper2.mtl
o Scyscraper2_Cube.001
v -0.860162 -0.030645 0.781788
v -0.769501 2.888126 0.674138
v -0.860162 -0.030645 -0.781787
v -0.769501 2.888126 -0.674137
v 0.860162 -0.030645 0.781788
v 0.769501 2.888126 0.674138
v 0.860162 -0.030645 -0.781787
v 0.769501 2.888126 -0.674137
v -1.046629 2.888126 0.951265
v -1.046629 2.888126 -0.951264
v 1.046629 2.888126 -0.951264
v 1.046629 2.888126 0.951265
v -0.507871 4.336482 0.412507
v -0.507871 4.336482 -0.412507
v 0.507871 4.336482 -0.412507
v 0.507871 4.336482 0.412507
v -0.769501 4.336482 0.674138
v -0.769501 4.336482 -0.674137
v 0.769501 4.336482 -0.674137
v 0.769501 4.336482 0.674138
v -0.507871 5.151027 0.412507
v -0.507871 5.151027 -0.412507
v 0.507871 5.151027 -0.412507
v 0.507871 5.151027 0.412507
vt 0.253687 0.314746
vt 0.020992 0.314746
vt 0.029734 0.163885
vt 0.260872 0.190762
vt 0.059411 0.000291
vt 0.285262 0.056314
vt 0.285262 0.573178
vt 0.059411 0.629201
vt 0.031575 0.480672
vt 0.262385 0.451111
vt 0.727997 0.463030
vt 0.727997 0.355939
vt 0.843038 0.355940
vt 0.843038 0.463031
vt 0.000291 0.291498
vt 0.006486 0.184586
vt 0.012005 0.138297
vt 0.033824 0.018020
vt 0.033722 0.611621
vt 0.013995 0.506362
vt 0.008207 0.460106
vt 0.000426 0.338114
vt 0.146499 0.775159
vt 0.065820 0.775159
vt 0.065820 0.710461
vt 0.146499 0.710462
vt 0.727997 0.692362
vt 0.727997 0.585271
vt 0.843038 0.585271
vt 0.843038 0.692362
vt 0.727997 0.814602
vt 0.843038 0.814602
vt 0.863819 0.606051
vt 0.863819 0.671581
vt 0.863819 0.713142
vt 0.863819 0.793821
vt 0.863819 0.376720
vt 0.863819 0.442250
vt 0.863819 0.483811
vt 0.863819 0.564490
vt 0.000291 0.710461
vt 0.000291 0.629783
vt 0.065820 0.629783
vt 0.292707 0.775159
vt 0.212028 0.775159
vt 0.212028 0.710462
vt 0.292707 0.710462
vt 0.000291 0.775159
vn -0.9980 -0.0638 0.0000
vn 0.0000 -0.0580 -0.9983
vn 0.9980 -0.0638 0.0000
vn 0.0000 -0.0580 0.9983
vn 1.0000 0.0000 0.0000
vn 0.0000 1.0000 0.0000
vn 0.0000 0.0000 1.0000
vn -1.0000 0.0000 0.0000
vn 0.0000 0.0000 -1.0000
usemtl None
s off
f 1/1/1 9/2/1 10/3/1 3/4/1
f 3/4/2 10/3/2 11/5/2 7/6/2
f 7/7/3 11/8/3 12/9/3 5/10/3
f 5/10/4 12/9/4 9/2/4 1/1/4
f 6/11/5 8/12/5 19/13/5 20/14/5
f 2/15/6 4/16/6 10/3/6 9/2/6
f 4/17/6 8/18/6 11/5/6 10/3/6
f 8/19/6 6/20/6 12/9/6 11/8/6
f 6/21/6 2/22/6 9/2/6 12/9/6
f 13/23/7 16/24/7 24/25/7 21/26/7
f 4/27/8 2/28/8 17/29/8 18/30/8
f 2/28/7 6/11/7 20/14/7 17/29/7
f 8/31/9 4/27/9 18/30/9 19/32/9
f 13/33/6 14/34/6 18/30/6 17/29/6
f 14/35/6 15/36/6 19/32/6 18/30/6
f 15/37/6 16/38/6 20/14/6 19/13/6
f 16/39/6 13/40/6 17/29/6 20/14/6
f 23/41/6 22/42/6 21/43/6 24/25/6
f 15/44/9 14/45/9 22/46/9 23/47/9
f 16/24/5 15/48/5 23/41/5 24/25/5
f 14/45/8 13/23/8 21/26/8 22/46/8
