# Blender v2.81 (sub 16) OBJ File: 'UnhappyTreeFriends.blend'
# www.blender.org
mtllib Scyscraper.mtl
o Scyscraper1_Cube
v -0.860162 -0.033900 0.781788
v -1.225179 3.285838 1.113546
v -0.860162 -0.033900 -0.781788
v -1.225179 3.285838 -1.113546
v 0.860162 -0.033900 0.781788
v 1.225179 3.285838 1.113546
v 0.860162 -0.033900 -0.781788
v 1.225179 3.285838 -1.113546
vt 0.035088 0.462401
vt 0.396780 0.501973
vt 0.346924 0.738213
vt 0.000086 0.628258
vt 0.999914 0.462401
vt 0.638223 0.501973
vt 0.638223 0.236326
vt 0.999914 0.275898
vt 0.000086 0.110041
vt 0.346924 0.000086
vt 0.396780 0.236326
vt 0.035088 0.275898
vn -0.9940 -0.1093 0.0000
vn 0.0000 -0.0994 -0.9950
vn 0.9940 -0.1093 0.0000
vn 0.0000 -0.0994 0.9950
vn 0.0000 1.0000 0.0000
usemtl None
s off
f 1/1/1 2/2/1 4/3/1 3/4/1
f 3/5/2 4/6/2 8/7/2 7/8/2
f 7/9/3 8/10/3 6/11/3 5/12/3
f 5/12/4 6/11/4 2/2/4 1/1/4
f 8/7/5 4/6/5 2/2/5 6/11/5
