# Blender v2.81 (sub 16) OBJ File: 'UnhappyTreeFriends.blend'
# www.blender.org
mtllib TileWater.mtl
o TileWater_Plane
v -5.000000 0.000000 5.000000
v 5.000000 0.000000 5.000000
v -5.000000 0.000000 -5.000000
v 5.000000 0.000000 -5.000000
v -4.204961 0.000000 -4.204961
v -4.170797 -0.216267 4.170797
v 4.204961 0.000000 4.204961
v 4.204961 0.000000 -4.204961
v -4.210896 -0.179823 -3.180599
v -4.381252 -0.206689 -1.908616
v -4.212741 -0.206158 -0.589298
v -4.216642 -0.206649 0.589443
v -4.422677 -0.212691 1.905963
v -4.417527 -0.215789 3.143491
v 4.215258 -0.180255 3.180943
v 4.428973 -0.210284 1.915328
v 4.465924 -0.215052 0.639241
v 4.428854 -0.210284 -0.639755
v 4.213154 -0.180299 -1.928272
v 4.204961 0.000000 -3.003544
v -5.000000 0.000000 -3.571429
v -5.000000 0.000000 -2.142857
v -5.000000 0.000000 -0.714286
v -5.000000 0.000000 0.714286
v -5.000000 0.000000 2.142857
v -5.000000 0.000000 3.571429
v 5.000000 0.000000 3.571429
v 5.000000 0.000000 2.142857
v 5.000000 0.000000 0.714286
v 5.000000 0.000000 -0.714286
v 5.000000 0.000000 -2.142857
v 5.000000 0.000000 -3.571429
v -3.143491 -0.215789 4.417527
v -1.905963 -0.212691 4.422678
v -0.589443 -0.206649 4.216643
v 0.589298 -0.206158 4.212740
v 1.908616 -0.206689 4.381252
v 3.180599 -0.179823 4.210895
v 3.003544 0.000000 -4.204961
v 1.922937 -0.177493 -4.175554
v 0.589898 -0.201911 -4.179570
v -0.589402 -0.205753 -4.209327
v -1.908627 -0.206669 -4.381077
v -3.180599 -0.179823 -4.210895
v -3.571429 0.000000 5.000000
v -2.142857 0.000000 5.000000
v -0.714286 0.000000 5.000000
v 0.714286 0.000000 5.000000
v 2.142857 0.000000 5.000000
v 3.571429 0.000000 5.000000
v 3.571429 0.000000 -5.000000
v 2.142857 0.000000 -5.000000
v 0.714286 0.000000 -5.000000
v -0.714286 0.000000 -5.000000
v -2.142857 0.000000 -5.000000
v -3.571429 0.000000 -5.000000
v 3.409345 -0.272451 3.409060
v 0.302971 -0.299808 3.476174
v -0.303001 -0.299841 3.476466
v -3.476466 -0.299841 0.303001
v -3.476174 -0.299808 -0.302971
v 3.389523 -0.273638 -2.218925
v 3.115587 -0.188530 -3.115358
v 2.218469 -0.273069 -3.383765
v 0.302827 -0.299167 -3.470775
v -0.303009 -0.299738 -3.475552
v -3.409054 -0.272418 -3.409053
v -4.078489 -1.350349 3.019309
v -3.997113 -1.331631 3.997113
v -4.002735 -1.326368 -2.828152
v -4.074856 -1.349448 -1.813688
v -4.002211 -1.329008 -0.799636
v -4.002502 -1.329041 0.799665
v -4.078858 -1.349963 1.813736
v 4.003027 -1.326401 2.828158
v 4.079216 -1.349864 1.814096
v 4.082964 -1.350318 0.604801
v 4.079216 -1.349864 -0.604715
v 4.002869 -1.326401 -1.619112
v -3.003544 -1.406625 3.003544
v -3.003544 -1.406625 1.802126
v -3.044780 -1.368301 0.571851
v -3.044780 -1.368301 -0.571851
v -3.003544 -1.406625 -1.802126
v -3.040028 -1.366628 -3.040027
v -3.019309 -1.350349 4.078489
v -1.813736 -1.349963 4.078858
v -0.799665 -1.329041 4.002502
v 0.799636 -1.329008 4.002211
v 1.813688 -1.349448 4.074856
v 2.828152 -1.326368 4.002735
v 1.618680 -1.325963 -3.998278
v 0.799562 -1.328498 -3.997979
v -0.799650 -1.328981 -4.001977
v -1.813688 -1.349448 -4.074857
v -2.828152 -1.326368 -4.002735
v 3.040028 -1.366628 3.040028
v 1.802126 -1.406625 3.003544
v 0.571851 -1.368301 3.044780
v -0.571851 -1.368301 3.044780
v -1.802126 -1.406625 3.003544
v 3.003544 -1.406625 1.802126
v 1.802126 -1.406625 1.802126
v 0.600709 -1.406625 1.802126
v -0.600709 -1.406625 1.802126
v -1.802126 -1.406625 1.802126
v 3.003544 -1.406625 0.600709
v 1.802126 -1.406625 0.600709
v 0.600709 -1.406625 0.600709
v -0.600709 -1.406625 0.600709
v -1.802126 -1.406625 0.600709
v 3.003544 -1.406625 -0.600709
v 1.802126 -1.406625 -0.600709
v 0.600709 -1.406625 -0.600709
v -0.600709 -1.406625 -0.600709
v -1.802126 -1.406625 -0.600709
v 3.038397 -1.366672 -1.839328
v 1.802126 -1.406625 -1.802126
v 0.600709 -1.406625 -1.802126
v -0.600709 -1.406625 -1.802127
v -1.802126 -1.406625 -1.802126
v 2.816638 -1.327335 -2.816638
v 1.839323 -1.366646 -3.038164
v 0.571837 -1.368275 -3.044547
v -0.571851 -1.368301 -3.044780
v -1.802126 -1.406625 -3.003544
v -4.636596 -0.244256 4.636596
v 4.636596 -0.244256 4.636596
v -4.636596 -0.244256 -4.636596
v 4.636596 -0.244256 -4.636596
vt 0.368277 0.631723
vt 0.368277 0.005867
vt 0.994133 0.005867
vt 0.994133 0.631723
vt 0.286731 0.075891
vt 0.284412 0.038479
vt 0.324696 0.039379
vt 0.323945 0.079543
vt 0.285470 0.323130
vt 0.322370 0.323697
vt 0.349849 0.350774
vt 0.300762 0.351057
vt 0.029947 0.281291
vt 0.044034 0.316169
vt 0.012971 0.346329
vt 0.011225 0.297115
vt 0.078995 0.039732
vt 0.042401 0.038829
vt 0.015696 0.011666
vt 0.064079 0.012096
vt 0.352176 0.013114
vt 0.351042 0.061406
vt 0.303847 0.012017
vt 0.246693 0.039325
vt 0.255404 0.011612
vt 0.203541 0.027481
vt 0.207086 0.008014
vt 0.162503 0.025357
vt 0.159977 0.006694
vt 0.121433 0.027865
vt 0.112812 0.008752
vt 0.078501 0.331271
vt 0.062119 0.349538
vt 0.118293 0.335590
vt 0.109467 0.355043
vt 0.160689 0.328472
vt 0.156813 0.355399
vt 0.199778 0.328752
vt 0.204356 0.355016
vt 0.242749 0.334000
vt 0.251384 0.354507
vt 0.042849 0.075410
vt 0.068176 0.065023
vt 0.259408 0.064819
vt 0.237960 0.300094
vt 0.261485 0.297324
vt 0.056045 0.173223
vt 0.035753 0.160515
vt 0.064304 0.146425
vt 0.086227 0.162220
vt 0.296008 0.297779
vt 0.270971 0.273209
vt 0.035038 0.199414
vt 0.054356 0.187455
vt 0.086128 0.199933
vt 0.062341 0.215232
vt 0.261691 0.100423
vt 0.235084 0.091139
vt 0.331323 0.243708
vt 0.321198 0.286786
vt 0.294926 0.263278
vt 0.297260 0.239680
vt 0.103323 0.065811
vt 0.092841 0.090344
vt 0.187520 0.308051
vt 0.199272 0.278060
vt 0.214585 0.300405
vt 0.067570 0.293296
vt 0.089628 0.298134
vt 0.173196 0.309390
vt 0.324515 0.201203
vt 0.297213 0.216276
vt 0.145550 0.300661
vt 0.161484 0.277218
vt 0.223774 0.066253
vt 0.197953 0.063506
vt 0.320237 0.116760
vt 0.323454 0.161810
vt 0.294030 0.150774
vt 0.294836 0.135072
vt 0.163444 0.062262
vt 0.128968 0.062938
vt 0.031456 0.117694
vt 0.068336 0.099594
vt 0.065113 0.123100
vt 0.296985 0.103162
vt 0.270780 0.126438
vt 0.303558 0.175133
vt 0.274288 0.164662
vt 0.305395 0.189117
vt 0.274007 0.201213
vt 0.120930 0.300431
vt 0.026779 0.241461
vt 0.061914 0.239797
vt 0.063352 0.271117
vt 0.349438 0.301663
vt 0.352176 0.251985
vt 0.351649 0.204449
vt 0.350082 0.156890
vt 0.349148 0.109373
vt 0.015304 0.060061
vt 0.011286 0.108787
vt 0.009800 0.155348
vt 0.008143 0.202543
vt 0.007133 0.249701
vt 0.128850 0.093461
vt 0.163337 0.093856
vt 0.198253 0.094065
vt 0.235613 0.271782
vt 0.234657 0.237421
vt 0.268858 0.237890
vt 0.235174 0.201318
vt 0.235095 0.164732
vt 0.234142 0.128750
vt 0.198349 0.238181
vt 0.198478 0.201403
vt 0.198593 0.165057
vt 0.198487 0.129222
vt 0.161737 0.238009
vt 0.161969 0.201211
vt 0.162379 0.164882
vt 0.162978 0.129009
vt 0.124321 0.271306
vt 0.125452 0.236920
vt 0.125241 0.200633
vt 0.125929 0.164151
vt 0.127705 0.128074
vt 0.091550 0.269967
vt 0.091078 0.237180
vt 0.093404 0.126038
vn 0.0000 1.0000 0.0000
vn -0.3597 0.8598 0.3624
vn -0.0941 0.9918 0.0867
vn -0.0215 0.9995 0.0215
vn -0.0840 0.9921 0.0935
vn 0.4062 0.8635 0.2989
vn 0.0910 0.9917 0.0910
vn 0.0657 0.9957 0.0657
vn 0.1287 0.9901 0.0564
vn 0.0509 0.7034 -0.7089
vn 0.3938 0.8306 -0.3938
vn 0.1510 0.9769 -0.1510
vn 0.0186 0.9555 -0.2942
vn -0.4060 0.8616 -0.3047
vn -0.0910 0.9916 -0.0913
vn -0.0658 0.9956 -0.0658
vn -0.1321 0.9895 -0.0588
vn -0.0210 0.9995 0.0228
vn -0.0236 0.9995 0.0218
vn -0.4219 0.8540 0.3044
vn -0.1587 0.9857 0.0555
vn -0.7100 0.7023 0.0510
vn -0.3114 0.9500 0.0203
vn -0.7229 0.6910 0.0001
vn -0.3583 0.9336 -0.0005
vn -0.7099 0.7024 -0.0509
vn -0.3001 0.9536 -0.0219
vn 0.7089 0.7034 -0.0509
vn 0.2942 0.9555 -0.0186
vn 0.7129 0.7001 0.0395
vn 0.3291 0.9442 0.0097
vn 0.4790 0.8412 0.2506
vn 0.2796 0.9600 0.0138
vn 0.4789 0.8430 -0.2449
vn 0.2716 0.9623 -0.0095
vn 0.7021 0.7120 0.0045
vn 0.2665 0.9638 0.0087
vn -0.2988 0.8635 -0.4064
vn -0.5124 0.6884 -0.5133
vn -0.5244 0.6885 0.5010
vn 0.6501 0.7598 -0.0010
vn 0.5637 0.7024 0.4345
vn 0.4021 0.7183 -0.5677
vn 0.2449 0.8430 -0.4789
vn 0.4495 0.6847 -0.5736
vn 0.2052 0.9297 -0.3057
vn 0.5129 0.6883 0.5129
vn 0.2868 0.9141 0.2868
vn -0.2506 0.8412 -0.4790
vn -0.4028 0.7183 -0.5673
vn -0.2053 0.9298 -0.3054
vn -0.4542 0.6880 -0.5659
vn -0.4853 0.7260 0.4872
vn -0.2969 0.9102 0.2885
vn 0.0040 0.7121 0.7020
vn 0.2989 0.8635 0.4062
vn 0.4345 0.7024 0.5637
vn -0.0016 0.7596 0.6504
vn -0.5538 0.7068 -0.4400
vn -0.2864 0.9141 -0.2868
vn 0.5677 0.7183 -0.4021
vn 0.3057 0.9297 -0.2052
vn 0.5736 0.6847 -0.4495
vn 0.5237 0.6719 -0.5237
vn 0.6285 0.7756 -0.0585
vn 0.5673 0.7183 0.4028
vn -0.2483 0.8425 0.4780
vn -0.4498 0.6842 0.5741
vn 0.5659 0.6880 0.4542
vn 0.3054 0.9298 0.2053
vn -0.5612 0.7018 0.4386
vn -0.6238 0.7798 0.0526
vn -0.2730 0.8641 0.4227
vn 0.2142 0.8530 0.4759
vn 0.4096 0.6752 0.6134
vn -0.3942 0.6852 0.6124
vn -0.6102 0.7922 0.0002
vn -0.6220 0.7813 -0.0515
vn -0.0045 0.7120 -0.7021
vn -0.4345 0.7024 -0.5637
vn 0.0010 0.7598 -0.6501
vn -0.4966 0.6872 0.5302
vn -0.2787 0.9115 0.3023
vn 0.3981 0.7160 0.5734
vn 0.1942 0.9306 0.3102
vn -0.4043 0.7162 0.5688
vn -0.2060 0.9294 0.3062
vn 0.6312 0.7742 0.0467
vn -0.0395 0.7001 -0.7129
vn -0.0467 0.7742 -0.6312
vn 0.0585 0.7756 -0.6285
vn 0.0564 0.9901 0.1287
vn 0.0085 0.9639 0.2662
vn -0.0118 0.9636 0.2671
vn -0.0068 0.9724 0.2331
vn -0.0443 0.9895 0.1375
vn -0.0564 0.9901 -0.1287
vn -0.0087 0.9638 -0.2665
vn 0.0095 0.9623 -0.2716
vn -0.0138 0.9600 -0.2796
vn -0.0097 0.9442 -0.3291
vn -0.0295 0.9995 -0.0112
vn -0.0262 0.9996 0.0000
vn -0.0296 0.9995 0.0113
vn 0.0329 0.9995 0.0005
vn 0.0040 1.0000 0.0040
vn 0.0005 0.9995 0.0329
vn -0.0039 0.9999 0.0115
vn -0.0002 0.9999 0.0156
vn -0.0137 0.9997 0.0215
vn 0.0115 0.9999 -0.0039
vn -0.0040 1.0000 0.0040
vn 0.0115 0.9999 0.0039
vn 0.0294 0.9995 0.0107
vn -0.0039 0.9999 -0.0115
vn 0.0039 0.9999 -0.0115
vn -0.0002 0.9999 -0.0079
vn 0.0224 0.9995 -0.0224
vn -0.0107 0.9995 -0.0294
vn -0.0005 0.9995 -0.0329
usemtl None
s off
f 127/1/1 128/2/1 130/3/1 129/4/1
s 1
f 63/5/2 20/6/3 8/7/4 39/8/5
f 9/9/6 5/10/7 3/11/8 21/12/9
f 33/13/10 6/14/11 1/15/12 45/16/13
f 15/17/14 7/18/15 2/19/16 27/20/17
f 39/8/5 8/7/4 4/21/1 51/22/18
f 8/7/4 20/6/3 32/23/19 4/21/1
f 20/6/3 19/24/20 31/25/21 32/23/19
f 19/24/20 18/26/22 30/27/23 31/25/21
f 18/26/22 17/28/24 29/29/25 30/27/23
f 17/28/24 16/30/26 28/31/27 29/29/25
f 16/30/26 15/17/14 27/20/17 28/31/27
f 6/14/11 14/32/28 26/33/29 1/15/12
f 14/32/28 13/34/30 25/35/31 26/33/29
f 13/34/30 12/36/32 24/37/33 25/35/31
f 12/36/32 11/38/34 23/39/35 24/37/33
f 11/38/34 10/40/36 22/41/37 23/39/35
f 10/40/36 9/9/6 21/12/9 22/41/37
f 38/42/38 7/18/15 15/17/14 57/43/39
f 62/44/40 19/24/20 20/6/3 63/5/2
f 9/9/6 10/40/36 71/45/41 70/46/42
f 58/47/43 36/48/44 89/49/45 99/50/46
f 67/51/47 9/9/6 70/46/42 85/52/48
f 35/53/49 59/54/50 100/55/51 88/56/52
f 62/44/40 63/5/2 122/57/53 117/58/54
f 43/59/55 44/60/56 96/61/57 95/62/58
f 57/43/39 15/17/14 75/63/59 97/64/60
f 11/38/34 61/65/61 83/66/62 72/67/63
f 14/32/28 6/14/11 69/68/64 68/69/65
f 12/36/32 60/70/66 61/65/61 11/38/34
f 42/71/67 43/59/55 95/62/58 94/72/68
f 60/70/66 12/36/32 73/73/69 82/74/70
f 18/26/22 19/24/20 79/75/71 78/76/72
f 40/77/73 41/78/74 93/79/75 92/80/76
f 19/24/20 62/44/40 117/58/54 79/75/71
f 17/28/24 18/26/22 78/76/72 77/81/77
f 16/30/26 17/28/24 77/81/77 76/82/78
f 15/17/14 16/30/26 76/82/78 75/63/59
f 37/83/79 38/42/38 91/84/80 90/85/81
f 61/65/61 60/70/66 82/74/70 83/66/62
f 64/86/82 40/77/73 92/80/76 123/87/83
f 36/48/44 37/83/79 90/85/81 89/49/45
f 41/78/74 65/88/84 124/89/85 93/79/75
f 65/88/84 66/90/86 125/91/87 124/89/85
f 13/34/30 14/32/28 68/69/65 74/92/88
f 66/90/86 42/71/67 94/72/68 125/91/87
f 12/36/32 13/34/30 74/92/88 73/73/69
f 34/93/89 35/53/49 88/56/52 87/94/90
f 63/5/2 64/86/82 123/87/83 122/57/53
f 38/42/38 57/43/39 97/64/60 91/84/80
f 35/53/49 36/48/44 58/47/43 59/54/50
f 33/13/10 34/93/89 87/94/90 86/95/91
f 44/60/56 67/51/47 85/52/48 96/61/57
f 5/10/7 44/60/56 56/96/92 3/11/8
f 44/60/56 43/59/55 55/97/93 56/96/92
f 43/59/55 42/71/67 54/98/94 55/97/93
f 42/71/67 41/78/74 53/99/95 54/98/94
f 41/78/74 40/77/73 52/100/96 53/99/95
f 40/77/73 39/8/5 51/22/18 52/100/96
f 7/18/15 38/42/38 50/101/97 2/19/16
f 38/42/38 37/83/79 49/102/98 50/101/97
f 37/83/79 36/48/44 48/103/99 49/102/98
f 36/48/44 35/53/49 47/104/100 48/103/99
f 35/53/49 34/93/89 46/105/101 47/104/100
f 34/93/89 33/13/10 45/16/13 46/105/101
f 9/9/6 67/51/47 44/60/56 5/10/7
f 10/40/36 11/38/34 72/67/63 71/45/41
f 59/54/50 58/47/43 99/50/46 100/55/51
f 66/90/86 65/88/84 41/78/74 42/71/67
f 6/14/11 33/13/10 86/95/91 69/68/64
f 64/86/82 63/5/2 39/8/5 40/77/73
f 97/64/60 75/63/59 76/82/78 102/106/102
f 102/106/102 76/82/78 77/81/77 107/107/103
f 107/107/103 77/81/77 78/76/72 112/108/104
f 112/108/104 78/76/72 79/75/71 117/58/54
f 71/45/41 84/109/105 85/52/48 70/46/42
f 84/109/105 121/110/106 126/111/107 85/52/48
f 121/110/106 120/112/108 125/91/87 126/111/107
f 120/112/108 119/113/109 124/89/85 125/91/87
f 119/113/109 118/114/110 123/87/83 124/89/85
f 118/114/110 117/58/54 122/57/53 123/87/83
f 72/67/63 83/66/62 84/109/105 71/45/41
f 83/66/62 116/115/111 121/110/106 84/109/105
f 116/115/111 115/116/1 120/112/108 121/110/106
f 115/116/1 114/117/1 119/113/109 120/112/108
f 114/117/1 113/118/112 118/114/110 119/113/109
f 113/118/112 112/108/104 117/58/54 118/114/110
f 82/74/70 111/119/113 116/115/111 83/66/62
f 111/119/113 110/120/1 115/116/1 116/115/111
f 110/120/1 109/121/1 114/117/1 115/116/1
f 109/121/1 108/122/1 113/118/112 114/117/1
f 108/122/1 107/107/103 112/108/104 113/118/112
f 74/92/88 81/123/114 82/74/70 73/73/69
f 81/123/114 106/124/1 111/119/113 82/74/70
f 106/124/1 105/125/115 110/120/1 111/119/113
f 105/125/115 104/126/116 109/121/1 110/120/1
f 104/126/116 103/127/117 108/122/1 109/121/1
f 103/127/117 102/106/102 107/107/103 108/122/1
f 68/69/65 80/128/118 81/123/114 74/92/88
f 80/128/118 101/129/119 106/124/1 81/123/114
f 101/129/119 100/55/51 105/125/115 106/124/1
f 100/55/51 99/50/46 104/126/116 105/125/115
f 99/50/46 98/130/120 103/127/117 104/126/116
f 98/130/120 97/64/60 102/106/102 103/127/117
f 69/68/64 86/95/91 80/128/118 68/69/65
f 86/95/91 87/94/90 101/129/119 80/128/118
f 87/94/90 88/56/52 100/55/51 101/129/119
f 89/49/45 90/85/81 98/130/120 99/50/46
f 90/85/81 91/84/80 97/64/60 98/130/120
f 85/52/48 126/111/107 95/62/58 96/61/57
f 126/111/107 125/91/87 94/72/68 95/62/58
f 124/89/85 123/87/83 92/80/76 93/79/75
